<?xml version="1.0" encoding="UTF-8" standalone="no"?>
<svg
   xmlns:dc="http://purl.org/dc/elements/1.1/"
   xmlns:cc="http://creativecommons.org/ns#"
   xmlns:rdf="http://www.w3.org/1999/02/22-rdf-syntax-ns#"
   xmlns:svg="http://www.w3.org/2000/svg"
   xmlns="http://www.w3.org/2000/svg"
   xmlns:sodipodi="http://sodipodi.sourceforge.net/DTD/sodipodi-0.dtd"
   xmlns:inkscape="http://www.inkscape.org/namespaces/inkscape"
   viewBox="0 0 463.11865 110.74577"
   height="110.74577"
   width="463.11865"
   xml:space="preserve"
   id="svg2"
   version="1.1"
   sodipodi:docname="bannerfinalwhite.svg"
   inkscape:version="0.92.3 (2405546, 2018-03-11)"><sodipodi:namedview
     pagecolor="#ffffff"
     bordercolor="#666666"
     borderopacity="1"
     objecttolerance="10"
     gridtolerance="10"
     guidetolerance="10"
     inkscape:pageopacity="0"
     inkscape:pageshadow="2"
     inkscape:window-width="1366"
     inkscape:window-height="708"
     id="namedview192"
     showgrid="false"
     inkscape:zoom="0.89393939"
     inkscape:cx="51.048228"
     inkscape:cy="-54.376519"
     inkscape:window-x="0"
     inkscape:window-y="0"
     inkscape:window-maximized="1"
     inkscape:current-layer="svg2"
     fit-margin-top="0"
     fit-margin-left="0"
     fit-margin-right="0"
     fit-margin-bottom="0" /><metadata
     id="metadata8"><rdf:RDF><cc:Work
         rdf:about=""><dc:format>image/svg+xml</dc:format><dc:type
           rdf:resource="http://purl.org/dc/dcmitype/StillImage" /><dc:title></dc:title></cc:Work></rdf:RDF></metadata><defs
     id="defs6"><clipPath
       id="clipPath18"
       clipPathUnits="userSpaceOnUse"><path
         style="clip-rule:evenodd"
         id="path16"
         d="M 9.12e-6,0 H 612.00001 V 792 H 9.12e-6 Z"
         inkscape:connector-curvature="0" /></clipPath><clipPath
       id="clipPath26"
       clipPathUnits="userSpaceOnUse"><path
         style="clip-rule:evenodd"
         id="path24"
         d="M 9.12e-6,0 H 612.00001 V 792 H 9.12e-6 Z"
         inkscape:connector-curvature="0" /></clipPath><clipPath
       id="clipPath38"
       clipPathUnits="userSpaceOnUse"><path
         style="clip-rule:evenodd"
         id="path36"
         d="M 9.12e-6,0 H 612.00001 V 792 H 9.12e-6 Z"
         inkscape:connector-curvature="0" /></clipPath><clipPath
       id="clipPath46"
       clipPathUnits="userSpaceOnUse"><path
         style="clip-rule:evenodd"
         id="path44"
         d="M 9.12e-6,0 H 612.00001 V 792 H 9.12e-6 Z"
         inkscape:connector-curvature="0" /></clipPath><clipPath
       id="clipPath54"
       clipPathUnits="userSpaceOnUse"><path
         style="clip-rule:evenodd"
         id="path52"
         d="M 9.12e-6,0 H 612.00001 V 792 H 9.12e-6 Z"
         inkscape:connector-curvature="0" /></clipPath><clipPath
       id="clipPath66"
       clipPathUnits="userSpaceOnUse"><path
         style="clip-rule:evenodd"
         id="path64"
         d="M 9.12e-6,0 H 612.00001 V 792 H 9.12e-6 Z"
         inkscape:connector-curvature="0" /></clipPath><clipPath
       id="clipPath78"
       clipPathUnits="userSpaceOnUse"><path
         style="clip-rule:evenodd"
         id="path76"
         d="M 9.12e-6,0 H 612.00001 V 792 H 9.12e-6 Z"
         inkscape:connector-curvature="0" /></clipPath><clipPath
       id="clipPath90"
       clipPathUnits="userSpaceOnUse"><path
         style="clip-rule:evenodd"
         id="path88"
         d="M 9.12e-6,0 H 612.00001 V 792 H 9.12e-6 Z"
         inkscape:connector-curvature="0" /></clipPath><clipPath
       id="clipPath98"
       clipPathUnits="userSpaceOnUse"><path
         style="clip-rule:evenodd"
         id="path96"
         d="M 9.12e-6,0 H 612.00001 V 792 H 9.12e-6 Z"
         inkscape:connector-curvature="0" /></clipPath><clipPath
       id="clipPath106"
       clipPathUnits="userSpaceOnUse"><path
         style="clip-rule:evenodd"
         id="path104"
         d="M 9.12e-6,0 H 612.00001 V 792 H 9.12e-6 Z"
         inkscape:connector-curvature="0" /></clipPath><clipPath
       id="clipPath118"
       clipPathUnits="userSpaceOnUse"><path
         style="clip-rule:evenodd"
         id="path116"
         d="M 9.12e-6,0 H 612.00001 V 792 H 9.12e-6 Z"
         inkscape:connector-curvature="0" /></clipPath><clipPath
       id="clipPath130"
       clipPathUnits="userSpaceOnUse"><path
         style="clip-rule:evenodd"
         id="path128"
         d="M 9.12e-6,0 H 612.00001 V 792 H 9.12e-6 Z"
         inkscape:connector-curvature="0" /></clipPath><clipPath
       id="clipPath142"
       clipPathUnits="userSpaceOnUse"><path
         style="clip-rule:evenodd"
         id="path140"
         d="M 9.12e-6,0 H 612.00001 V 792 H 9.12e-6 Z"
         inkscape:connector-curvature="0" /></clipPath><clipPath
       id="clipPath154"
       clipPathUnits="userSpaceOnUse"><path
         style="clip-rule:evenodd"
         id="path152"
         d="M 9.12e-6,0 H 612.00001 V 792 H 9.12e-6 Z"
         inkscape:connector-curvature="0" /></clipPath><clipPath
       id="clipPath162"
       clipPathUnits="userSpaceOnUse"><path
         style="clip-rule:evenodd"
         id="path160"
         d="M 9.12e-6,0 H 612.00001 V 792 H 9.12e-6 Z"
         inkscape:connector-curvature="0" /></clipPath><clipPath
       id="clipPath174"
       clipPathUnits="userSpaceOnUse"><path
         style="clip-rule:evenodd"
         id="path172"
         d="M 9.12e-6,0 H 612.00001 V 792 H 9.12e-6 Z"
         inkscape:connector-curvature="0" /></clipPath><clipPath
       id="clipPath182"
       clipPathUnits="userSpaceOnUse"><path
         style="clip-rule:evenodd"
         id="path180"
         d="M 9.12e-6,0 H 612.00001 V 792 H 9.12e-6 Z"
         inkscape:connector-curvature="0" /></clipPath><clipPath
       id="clipPath190"
       clipPathUnits="userSpaceOnUse"><path
         style="clip-rule:evenodd"
         id="path188"
         d="M 9.12e-6,0 H 612.00001 V 792 H 9.12e-6 Z"
         inkscape:connector-curvature="0" /></clipPath><clipPath
       id="clipPath202"
       clipPathUnits="userSpaceOnUse"><path
         style="clip-rule:evenodd"
         id="path200"
         d="M 9.12e-6,0 H 612.00001 V 792 H 9.12e-6 Z"
         inkscape:connector-curvature="0" /></clipPath><clipPath
       id="clipPath210"
       clipPathUnits="userSpaceOnUse"><path
         style="clip-rule:evenodd"
         id="path208"
         d="M 9.12e-6,0 H 612.00001 V 792 H 9.12e-6 Z"
         inkscape:connector-curvature="0" /></clipPath><clipPath
       id="clipPath222"
       clipPathUnits="userSpaceOnUse"><path
         style="clip-rule:evenodd"
         id="path220"
         d="M 9.12e-6,0 H 612.00001 V 792 H 9.12e-6 Z"
         inkscape:connector-curvature="0" /></clipPath><clipPath
       id="clipPath234"
       clipPathUnits="userSpaceOnUse"><path
         style="clip-rule:evenodd"
         id="path232"
         d="M 9.12e-6,0 H 612.00001 V 792 H 9.12e-6 Z"
         inkscape:connector-curvature="0" /></clipPath><clipPath
       id="clipPath246"
       clipPathUnits="userSpaceOnUse"><path
         style="clip-rule:evenodd"
         id="path244"
         d="M 9.12e-6,0 H 612.00001 V 792 H 9.12e-6 Z"
         inkscape:connector-curvature="0" /></clipPath><clipPath
       id="clipPath258"
       clipPathUnits="userSpaceOnUse"><path
         style="clip-rule:evenodd"
         id="path256"
         d="M 9.12e-6,0 H 612.00001 V 792 H 9.12e-6 Z"
         inkscape:connector-curvature="0" /></clipPath><clipPath
       id="clipPath270"
       clipPathUnits="userSpaceOnUse"><path
         style="clip-rule:evenodd"
         id="path268"
         d="M 9.12e-6,0 H 612.00001 V 792 H 9.12e-6 Z"
         inkscape:connector-curvature="0" /></clipPath><clipPath
       id="clipPath282"
       clipPathUnits="userSpaceOnUse"><path
         style="clip-rule:evenodd"
         id="path280"
         d="M 9.12e-6,0 H 612.00001 V 792 H 9.12e-6 Z"
         inkscape:connector-curvature="0" /></clipPath><clipPath
       id="clipPath294"
       clipPathUnits="userSpaceOnUse"><path
         style="clip-rule:evenodd"
         id="path292"
         d="M 9.12e-6,0 H 612.00001 V 792 H 9.12e-6 Z"
         inkscape:connector-curvature="0" /></clipPath><clipPath
       id="clipPath306"
       clipPathUnits="userSpaceOnUse"><path
         style="clip-rule:evenodd"
         id="path304"
         d="M 9.12e-6,0 H 612.00001 V 792 H 9.12e-6 Z"
         inkscape:connector-curvature="0" /></clipPath><clipPath
       id="clipPath318"
       clipPathUnits="userSpaceOnUse"><path
         style="clip-rule:evenodd"
         id="path316"
         d="M 9.12e-6,0 H 612.00001 V 792 H 9.12e-6 Z"
         inkscape:connector-curvature="0" /></clipPath><clipPath
       id="clipPath330"
       clipPathUnits="userSpaceOnUse"><path
         style="clip-rule:evenodd"
         id="path328"
         d="M 9.12e-6,0 H 612.00001 V 792 H 9.12e-6 Z"
         inkscape:connector-curvature="0" /></clipPath><clipPath
       id="clipPath338"
       clipPathUnits="userSpaceOnUse"><path
         style="clip-rule:evenodd"
         id="path336"
         d="M 9.12e-6,0 H 612.00001 V 792 H 9.12e-6 Z"
         inkscape:connector-curvature="0" /></clipPath><clipPath
       id="clipPath346"
       clipPathUnits="userSpaceOnUse"><path
         style="clip-rule:evenodd"
         id="path344"
         d="M 9.12e-6,0 H 612.00001 V 792 H 9.12e-6 Z"
         inkscape:connector-curvature="0" /></clipPath><clipPath
       id="clipPath358"
       clipPathUnits="userSpaceOnUse"><path
         style="clip-rule:evenodd"
         id="path356"
         d="M 9.12e-6,0 H 612.00001 V 792 H 9.12e-6 Z"
         inkscape:connector-curvature="0" /></clipPath><clipPath
       id="clipPath366"
       clipPathUnits="userSpaceOnUse"><path
         style="clip-rule:evenodd"
         id="path364"
         d="M 9.12e-6,0 H 612.00001 V 792 H 9.12e-6 Z"
         inkscape:connector-curvature="0" /></clipPath><clipPath
       id="clipPath374"
       clipPathUnits="userSpaceOnUse"><path
         style="clip-rule:evenodd"
         id="path372"
         d="M 9.12e-6,0 H 612.00001 V 792 H 9.12e-6 Z"
         inkscape:connector-curvature="0" /></clipPath><clipPath
       id="clipPath382"
       clipPathUnits="userSpaceOnUse"><path
         style="clip-rule:evenodd"
         id="path380"
         d="M 9.12e-6,0 H 612.00001 V 792 H 9.12e-6 Z"
         inkscape:connector-curvature="0" /></clipPath></defs><g
     transform="matrix(1.3244131,0,0,-1.3244131,-81.716342,953.97425)"
     id="g10"
     inkscape:export-xdpi="96"
     inkscape:export-ydpi="96"
     style="fill:#ffffff"><g
       id="g12"
       style="fill:#ffffff"><g
         clip-path="url(#clipPath18)"
         id="g14"
         style="fill:#ffffff" /></g><g
       id="g20"
       style="fill:#ffffff"><g
         clip-path="url(#clipPath26)"
         id="g22"
         style="fill:#ffffff"><g
   aria-label="____ ____ __ "
   transform="matrix(1,0,0,-1,100.34,710.98)"
   style="font-variant:normal;font-weight:normal;font-size:10.56000042px;font-family:'Courier 10 Pitch';-inkscape-font-specification:CourierNewPSMT;writing-mode:lr-tb;fill:#ffffff;fill-opacity:1;fill-rule:nonzero;stroke:none"
   id="text30"><path
     d="M 6.3571203,2.3020801 H 0 c -0.13728001,0 -0.23232001,0.08448 -0.23232001,0.2112 v 0.39072 c 0,0.14784 0.09504,0.25344 0.23232001,0.25344 h 6.3571203 c 0.12672,0 0.24288,-0.11616 0.24288,-0.25344 v -0.39072 c 0,-0.13728 -0.08448,-0.2112 -0.24288,-0.2112 z"
     id="path1229"
     inkscape:connector-curvature="0"
     style="fill:#ffffff" /><path
     d="M 12.59808,2.3020801 H 6.2409601 c -0.13728,0 -0.23232,0.08448 -0.23232,0.2112 v 0.39072 c 0,0.14784 0.09504,0.25344 0.23232,0.25344 H 12.59808 c 0.12672,0 0.24288,-0.11616 0.24288,-0.25344 v -0.39072 c 0,-0.13728 -0.08448,-0.2112 -0.24288,-0.2112 z"
     id="path1231"
     inkscape:connector-curvature="0"
     style="fill:#ffffff" /><path
     d="m 18.93408,2.3020801 h -6.35712 c -0.13728,0 -0.23232,0.08448 -0.23232,0.2112 v 0.39072 c 0,0.14784 0.09504,0.25344 0.23232,0.25344 h 6.35712 c 0.12672,0 0.24288,-0.11616 0.24288,-0.25344 v -0.39072 c 0,-0.13728 -0.08448,-0.2112 -0.24288,-0.2112 z"
     id="path1233"
     inkscape:connector-curvature="0"
     style="fill:#ffffff" /><path
     d="m 25.196161,2.3020801 h -6.35712 c -0.13728,0 -0.23232,0.08448 -0.23232,0.2112 v 0.39072 c 0,0.14784 0.09504,0.25344 0.23232,0.25344 h 6.35712 c 0.12672,0 0.24288,-0.11616 0.24288,-0.25344 v -0.39072 c 0,-0.13728 -0.08448,-0.2112 -0.24288,-0.2112 z"
     id="path1235"
     inkscape:connector-curvature="0"
     style="fill:#ffffff" /><path
     d="m 157.53408,2.3020801 h -6.35712 c -0.13728,0 -0.23232,0.08448 -0.23232,0.2112 v 0.39072 c 0,0.14784 0.095,0.25344 0.23232,0.25344 h 6.35712 c 0.12672,0 0.24288,-0.11616 0.24288,-0.25344 v -0.39072 c 0,-0.13728 -0.0845,-0.2112 -0.24288,-0.2112 z"
     id="path1237"
     inkscape:connector-curvature="0"
     style="fill:#ffffff" /><path
     d="m 163.87007,2.3020801 h -6.35712 c -0.13728,0 -0.23232,0.08448 -0.23232,0.2112 v 0.39072 c 0,0.14784 0.095,0.25344 0.23232,0.25344 h 6.35712 c 0.12672,0 0.24288,-0.11616 0.24288,-0.25344 v -0.39072 c 0,-0.13728 -0.0845,-0.2112 -0.24288,-0.2112 z"
     id="path1239"
     inkscape:connector-curvature="0"
     style="fill:#ffffff" /><path
     d="m 170.13216,2.3020801 h -6.35712 c -0.13728,0 -0.23232,0.08448 -0.23232,0.2112 v 0.39072 c 0,0.14784 0.095,0.25344 0.23232,0.25344 h 6.35712 c 0.12672,0 0.24288,-0.11616 0.24288,-0.25344 v -0.39072 c 0,-0.13728 -0.0845,-0.2112 -0.24288,-0.2112 z"
     id="path1241"
     inkscape:connector-curvature="0"
     style="fill:#ffffff" /><path
     d="m 176.46816,2.3020801 h -6.35712 c -0.13728,0 -0.23232,0.08448 -0.23232,0.2112 v 0.39072 c 0,0.14784 0.095,0.25344 0.23232,0.25344 h 6.35712 c 0.12672,0 0.24288,-0.11616 0.24288,-0.25344 v -0.39072 c 0,-0.13728 -0.0845,-0.2112 -0.24288,-0.2112 z"
     id="path1243"
     inkscape:connector-curvature="0"
     style="fill:#ffffff" /><path
     d="m 226.86048,2.3020801 h -6.35712 c -0.13728,0 -0.23232,0.08448 -0.23232,0.2112 v 0.39072 c 0,0.14784 0.095,0.25344 0.23232,0.25344 h 6.35712 c 0.12672,0 0.24288,-0.11616 0.24288,-0.25344 v -0.39072 c 0,-0.13728 -0.0845,-0.2112 -0.24288,-0.2112 z"
     id="path1245"
     inkscape:connector-curvature="0"
     style="fill:#ffffff" /><path
     d="m 233.23873,2.3020801 h -6.35712 c -0.13728,0 -0.23232,0.08448 -0.23232,0.2112 v 0.39072 c 0,0.14784 0.095,0.25344 0.23232,0.25344 h 6.35712 c 0.12672,0 0.24288,-0.11616 0.24288,-0.25344 v -0.39072 c 0,-0.13728 -0.0845,-0.2112 -0.24288,-0.2112 z"
     id="path1247"
     inkscape:connector-curvature="0"
     style="fill:#ffffff" /></g>
</g></g><g
       id="g32"
       style="fill:#ffffff"><g
         clip-path="url(#clipPath38)"
         id="g34"
         style="fill:#ffffff" /></g><g
       id="g40"
       style="fill:#ffffff"><g
         clip-path="url(#clipPath46)"
         id="g42"
         style="fill:#ffffff" /></g><g
       id="g48"
       style="fill:#ffffff"><g
         clip-path="url(#clipPath54)"
         id="g50"
         style="fill:#ffffff"><g
   aria-label="/ _/___ _____ _____ / __ "
   transform="matrix(1,0,0,-1,93.984,699.1)"
   style="font-variant:normal;font-weight:normal;font-size:10.56000042px;font-family:'Courier 10 Pitch';-inkscape-font-specification:CourierNewPSMT;writing-mode:lr-tb;fill:#ffffff;fill-opacity:1;fill-rule:nonzero;stroke:none"
   id="text58"><path
     d="M 2.0169601,0.13728001 5.2588802,-6.8428803 c 0.03168,-0.06336 0.0528,-0.12672 0.0528,-0.19008 0,-0.20064 -0.17952,-0.34848 -0.3696,-0.34848 -0.2112,0 -0.3168,0.14784 -0.46464,0.45408 L 1.25664,0.01056 c -0.03168,0.07392 -0.0528,0.14784001 -0.0528,0.21120001 0,0.20064001 0.1689601,0.35904001 0.3590401,0.35904001 0.22176,0 0.32736,-0.1584 0.45408,-0.44352001 z"
     id="path1250"
     inkscape:connector-curvature="0"
     style="fill:#ffffff" /><path
     d="m 25.2912,2.3020801 h -6.35712 c -0.13728,0 -0.23232,0.08448 -0.23232,0.2112 v 0.39072 c 0,0.14784 0.09504,0.25344 0.23232,0.25344 h 6.35712 c 0.12672,0 0.24288,-0.11616 0.24288,-0.25344 v -0.39072 c 0,-0.13728 -0.08448,-0.2112 -0.24288,-0.2112 z"
     id="path1252"
     inkscape:connector-curvature="0"
     style="fill:#ffffff" /><path
     d="M 27.213119,0.13728001 30.45504,-6.8428803 c 0.03168,-0.06336 0.0528,-0.12672 0.0528,-0.19008 0,-0.20064 -0.17952,-0.34848 -0.3696,-0.34848 -0.2112,0 -0.3168,0.14784 -0.46464,0.45408 L 26.452799,0.01056 c -0.03168,0.07392 -0.0528,0.14784001 -0.0528,0.21120001 0,0.20064001 0.16896,0.35904001 0.35904,0.35904001 0.22176,0 0.32736,-0.1584 0.45408,-0.44352001 z"
     id="path1254"
     inkscape:connector-curvature="0"
     style="fill:#ffffff" /><path
     d="m 37.88928,2.3020801 h -6.35712 c -0.13728,0 -0.23232,0.08448 -0.23232,0.2112 v 0.39072 c 0,0.14784 0.09504,0.25344 0.23232,0.25344 h 6.35712 c 0.12672,0 0.24288,-0.11616 0.24288,-0.25344 v -0.39072 c 0,-0.13728 -0.08448,-0.2112 -0.24288,-0.2112 z"
     id="path1256"
     inkscape:connector-curvature="0"
     style="fill:#ffffff" /><path
     d="m 44.151359,2.3020801 h -6.35712 c -0.13728,0 -0.23232,0.08448 -0.23232,0.2112 v 0.39072 c 0,0.14784 0.09504,0.25344 0.23232,0.25344 h 6.35712 c 0.12672,0 0.24288,-0.11616 0.24288,-0.25344 v -0.39072 c 0,-0.13728 -0.08448,-0.2112 -0.24288,-0.2112 z"
     id="path1258"
     inkscape:connector-curvature="0"
     style="fill:#ffffff" /><path
     d="m 50.487362,2.3020801 h -6.357121 c -0.13728,0 -0.23232,0.08448 -0.23232,0.2112 v 0.39072 c 0,0.14784 0.09504,0.25344 0.23232,0.25344 h 6.357121 c 0.12672,0 0.24288,-0.11616 0.24288,-0.25344 v -0.39072 c 0,-0.13728 -0.08448,-0.2112 -0.24288,-0.2112 z"
     id="path1260"
     inkscape:connector-curvature="0"
     style="fill:#ffffff" /><path
     d="m 63.085441,2.3020801 h -6.35712 c -0.13728,0 -0.23232,0.08448 -0.23232,0.2112 v 0.39072 c 0,0.14784 0.09504,0.25344 0.23232,0.25344 h 6.35712 c 0.12672,0 0.24288,-0.11616 0.24288,-0.25344 v -0.39072 c 0,-0.13728 -0.08448,-0.2112 -0.24288,-0.2112 z"
     id="path1262"
     inkscape:connector-curvature="0"
     style="fill:#ffffff" /><path
     d="m 69.347519,2.3020801 h -6.357121 c -0.13728,0 -0.23232,0.08448 -0.23232,0.2112 v 0.39072 c 0,0.14784 0.09504,0.25344 0.23232,0.25344 h 6.357121 c 0.12672,0 0.24288,-0.11616 0.24288,-0.25344 v -0.39072 c 0,-0.13728 -0.08448,-0.2112 -0.24288,-0.2112 z"
     id="path1264"
     inkscape:connector-curvature="0"
     style="fill:#ffffff" /><path
     d="m 75.683521,2.3020801 h -6.35712 c -0.13728,0 -0.23232,0.08448 -0.23232,0.2112 v 0.39072 c 0,0.14784 0.09504,0.25344 0.23232,0.25344 h 6.35712 c 0.12672,0 0.24288,-0.11616 0.24288,-0.25344 v -0.39072 c 0,-0.13728 -0.08448,-0.2112 -0.24288,-0.2112 z"
     id="path1266"
     inkscape:connector-curvature="0"
     style="fill:#ffffff" /><path
     d="m 81.945598,2.3020801 h -6.35712 c -0.13728,0 -0.23232,0.08448 -0.23232,0.2112 v 0.39072 c 0,0.14784 0.09504,0.25344 0.23232,0.25344 h 6.35712 c 0.12672,0 0.24288,-0.11616 0.24288,-0.25344 v -0.39072 c 0,-0.13728 -0.08448,-0.2112 -0.24288,-0.2112 z"
     id="path1268"
     inkscape:connector-curvature="0"
     style="fill:#ffffff" /><path
     d="m 88.281597,2.3020801 h -6.35712 c -0.13728,0 -0.23232,0.08448 -0.23232,0.2112 v 0.39072 c 0,0.14784 0.09504,0.25344 0.23232,0.25344 h 6.35712 c 0.12672,0 0.24288,-0.11616 0.24288,-0.25344 v -0.39072 c 0,-0.13728 -0.08448,-0.2112 -0.24288,-0.2112 z"
     id="path1270"
     inkscape:connector-curvature="0"
     style="fill:#ffffff" /><path
     d="m 107.14176,2.3020801 h -6.35712 c -0.13728,0 -0.23232,0.08448 -0.23232,0.2112 v 0.39072 c 0,0.14784 0.095,0.25344 0.23232,0.25344 h 6.35712 c 0.12672,0 0.24288,-0.11616 0.24288,-0.25344 v -0.39072 c 0,-0.13728 -0.0845,-0.2112 -0.24288,-0.2112 z"
     id="path1272"
     inkscape:connector-curvature="0"
     style="fill:#ffffff" /><path
     d="m 113.47776,2.3020801 h -6.35712 c -0.13728,0 -0.23232,0.08448 -0.23232,0.2112 v 0.39072 c 0,0.14784 0.095,0.25344 0.23232,0.25344 h 6.35712 c 0.12672,0 0.24288,-0.11616 0.24288,-0.25344 v -0.39072 c 0,-0.13728 -0.0845,-0.2112 -0.24288,-0.2112 z"
     id="path1274"
     inkscape:connector-curvature="0"
     style="fill:#ffffff" /><path
     d="m 119.856,2.3020801 h -6.35712 c -0.13728,0 -0.23232,0.08448 -0.23232,0.2112 v 0.39072 c 0,0.14784 0.095,0.25344 0.23232,0.25344 h 6.35712 c 0.12672,0 0.24288,-0.11616 0.24288,-0.25344 v -0.39072 c 0,-0.13728 -0.0845,-0.2112 -0.24288,-0.2112 z"
     id="path1276"
     inkscape:connector-curvature="0"
     style="fill:#ffffff" /><path
     d="m 126.09696,2.3020801 h -6.35712 c -0.13728,0 -0.23232,0.08448 -0.23232,0.2112 v 0.39072 c 0,0.14784 0.095,0.25344 0.23232,0.25344 h 6.35712 c 0.12672,0 0.24288,-0.11616 0.24288,-0.25344 v -0.39072 c 0,-0.13728 -0.0845,-0.2112 -0.24288,-0.2112 z"
     id="path1278"
     inkscape:connector-curvature="0"
     style="fill:#ffffff" /><path
     d="m 132.43296,2.3020801 h -6.35712 c -0.13728,0 -0.23232,0.08448 -0.23232,0.2112 v 0.39072 c 0,0.14784 0.095,0.25344 0.23232,0.25344 h 6.35712 c 0.12672,0 0.24288,-0.11616 0.24288,-0.25344 v -0.39072 c 0,-0.13728 -0.0845,-0.2112 -0.24288,-0.2112 z"
     id="path1280"
     inkscape:connector-curvature="0"
     style="fill:#ffffff" /><path
     d="m 153.28896,0.13728001 3.24192,-6.98016031 c 0.0317,-0.06336 0.0528,-0.12672 0.0528,-0.19008 0,-0.20064 -0.17952,-0.34848 -0.3696,-0.34848 -0.2112,0 -0.3168,0.14784 -0.46464,0.45408 l -3.2208,6.9379203 c -0.0317,0.07392 -0.0528,0.14784001 -0.0528,0.21120001 0,0.20064001 0.16896,0.35904001 0.35904,0.35904001 0.22176,0 0.32736,-0.1584 0.45408,-0.44352001 z"
     id="path1282"
     inkscape:connector-curvature="0"
     style="fill:#ffffff" /><path
     d="m 170.22721,2.3020801 h -6.35712 c -0.13728,0 -0.23232,0.08448 -0.23232,0.2112 v 0.39072 c 0,0.14784 0.095,0.25344 0.23232,0.25344 h 6.35712 c 0.12672,0 0.24288,-0.11616 0.24288,-0.25344 v -0.39072 c 0,-0.13728 -0.0845,-0.2112 -0.24288,-0.2112 z"
     id="path1284"
     inkscape:connector-curvature="0"
     style="fill:#ffffff" /><path
     d="m 176.48928,2.3020801 h -6.35712 c -0.13728,0 -0.23232,0.08448 -0.23232,0.2112 v 0.39072 c 0,0.14784 0.095,0.25344 0.23232,0.25344 h 6.35712 c 0.12672,0 0.24288,-0.11616 0.24288,-0.25344 v -0.39072 c 0,-0.13728 -0.0845,-0.2112 -0.24288,-0.2112 z"
     id="path1286"
     inkscape:connector-curvature="0"
     style="fill:#ffffff" /></g>
</g></g><g
       id="g60"
       style="fill:#ffffff"><g
         clip-path="url(#clipPath66)"
         id="g62"
         style="fill:#ffffff"><g
   aria-label="\"
   transform="matrix(1,0,0,-1,276.77,699.1)"
   style="font-variant:normal;font-weight:normal;font-size:10.56000042px;font-family:'Courier 10 Pitch';-inkscape-font-specification:CourierNewPSMT;writing-mode:lr-tb;fill:#ffffff;fill-opacity:1;fill-rule:nonzero;stroke:none"
   id="text70"><path
     d="m 4.6041602,0.34848001 c 0.06336,0.13728001 0.20064,0.23232001 0.33792,0.23232001 0.20064,0 0.35904,-0.1584 0.35904,-0.35904001 0,-0.06336 -0.02112,-0.13728001 -0.0528,-0.21120001 L 1.9219201,-7.1385603 c -0.0528,-0.12672 -0.22176,-0.23232 -0.3696,-0.23232 -0.19008,0 -0.3484801,0.14784 -0.3484801,0.33792 0,0.06336 0.01056,0.12672 0.04224,0.19008 z"
     id="path1289"
     inkscape:connector-curvature="0"
     style="fill:#ffffff" /></g>
</g></g><g
       id="g72"
       style="fill:#ffffff"><g
         clip-path="url(#clipPath78)"
         id="g74"
         style="fill:#ffffff"><g
   aria-label="_____/ /___ _ __"
   transform="matrix(1,0,0,-1,283.13,699.1)"
   style="font-variant:normal;font-weight:normal;font-size:10.56000042px;font-family:'Courier 10 Pitch';-inkscape-font-specification:CourierNewPSMT;writing-mode:lr-tb;fill:#ffffff;fill-opacity:1;fill-rule:nonzero;stroke:none"
   id="text82"><path
     d="M 6.3571203,2.3020801 H 0 c -0.13728001,0 -0.23232001,0.08448 -0.23232001,0.2112 v 0.39072 c 0,0.14784 0.09504,0.25344 0.23232001,0.25344 h 6.3571203 c 0.12672,0 0.24288,-0.11616 0.24288,-0.25344 v -0.39072 c 0,-0.13728 -0.08448,-0.2112 -0.24288,-0.2112 z"
     id="path1292"
     inkscape:connector-curvature="0"
     style="fill:#ffffff" /><path
     d="M 12.59808,2.3020801 H 6.2409601 c -0.13728,0 -0.23232,0.08448 -0.23232,0.2112 v 0.39072 c 0,0.14784 0.09504,0.25344 0.23232,0.25344 H 12.59808 c 0.12672,0 0.24288,-0.11616 0.24288,-0.25344 v -0.39072 c 0,-0.13728 -0.08448,-0.2112 -0.24288,-0.2112 z"
     id="path1294"
     inkscape:connector-curvature="0"
     style="fill:#ffffff" /><path
     d="m 18.93408,2.3020801 h -6.35712 c -0.13728,0 -0.23232,0.08448 -0.23232,0.2112 v 0.39072 c 0,0.14784 0.09504,0.25344 0.23232,0.25344 h 6.35712 c 0.12672,0 0.24288,-0.11616 0.24288,-0.25344 v -0.39072 c 0,-0.13728 -0.08448,-0.2112 -0.24288,-0.2112 z"
     id="path1296"
     inkscape:connector-curvature="0"
     style="fill:#ffffff" /><path
     d="m 25.196161,2.3020801 h -6.35712 c -0.13728,0 -0.23232,0.08448 -0.23232,0.2112 v 0.39072 c 0,0.14784 0.09504,0.25344 0.23232,0.25344 h 6.35712 c 0.12672,0 0.24288,-0.11616 0.24288,-0.25344 v -0.39072 c 0,-0.13728 -0.08448,-0.2112 -0.24288,-0.2112 z"
     id="path1298"
     inkscape:connector-curvature="0"
     style="fill:#ffffff" /><path
     d="m 31.53216,2.3020801 h -6.357121 c -0.13728,0 -0.23232,0.08448 -0.23232,0.2112 v 0.39072 c 0,0.14784 0.09504,0.25344 0.23232,0.25344 h 6.357121 c 0.12672,0 0.24288,-0.11616 0.24288,-0.25344 v -0.39072 c 0,-0.13728 -0.08448,-0.2112 -0.24288,-0.2112 z"
     id="path1300"
     inkscape:connector-curvature="0"
     style="fill:#ffffff" /><path
     d="m 33.454081,0.13728001 3.24192,-6.98016031 c 0.03168,-0.06336 0.0528,-0.12672 0.0528,-0.19008 0,-0.20064 -0.17952,-0.34848 -0.3696,-0.34848 -0.2112,0 -0.3168,0.14784 -0.46464,0.45408 L 32.69376,0.01056 c -0.03168,0.07392 -0.0528,0.14784001 -0.0528,0.21120001 0,0.20064001 0.16896,0.35904001 0.35904,0.35904001 0.221761,0 0.327361,-0.1584 0.454081,-0.44352001 z"
     id="path1302"
     inkscape:connector-curvature="0"
     style="fill:#ffffff" /><path
     d="m 46.16832,0.13728001 3.24192,-6.98016031 c 0.03168,-0.06336 0.0528,-0.12672 0.0528,-0.19008 0,-0.20064 -0.17952,-0.34848 -0.3696,-0.34848 -0.2112,0 -0.3168,0.14784 -0.46464,0.45408 L 45.408,0.01056 c -0.03168,0.07392 -0.0528,0.14784001 -0.0528,0.21120001 0,0.20064001 0.16896,0.35904001 0.35904,0.35904001 0.22176,0 0.32736,-0.1584 0.45408,-0.44352001 z"
     id="path1304"
     inkscape:connector-curvature="0"
     style="fill:#ffffff" /><path
     d="m 56.749439,2.3020801 h -6.35712 c -0.13728,0 -0.23232,0.08448 -0.23232,0.2112 v 0.39072 c 0,0.14784 0.09504,0.25344 0.23232,0.25344 h 6.35712 c 0.12672,0 0.24288,-0.11616 0.24288,-0.25344 v -0.39072 c 0,-0.13728 -0.08448,-0.2112 -0.24288,-0.2112 z"
     id="path1306"
     inkscape:connector-curvature="0"
     style="fill:#ffffff" /><path
     d="m 63.085441,2.3020801 h -6.35712 c -0.13728,0 -0.23232,0.08448 -0.23232,0.2112 v 0.39072 c 0,0.14784 0.09504,0.25344 0.23232,0.25344 h 6.35712 c 0.12672,0 0.24288,-0.11616 0.24288,-0.25344 v -0.39072 c 0,-0.13728 -0.08448,-0.2112 -0.24288,-0.2112 z"
     id="path1308"
     inkscape:connector-curvature="0"
     style="fill:#ffffff" /><path
     d="m 69.347519,2.3020801 h -6.357121 c -0.13728,0 -0.23232,0.08448 -0.23232,0.2112 v 0.39072 c 0,0.14784 0.09504,0.25344 0.23232,0.25344 h 6.357121 c 0.12672,0 0.24288,-0.11616 0.24288,-0.25344 v -0.39072 c 0,-0.13728 -0.08448,-0.2112 -0.24288,-0.2112 z"
     id="path1310"
     inkscape:connector-curvature="0"
     style="fill:#ffffff" /><path
     d="m 81.945598,2.3020801 h -6.35712 c -0.13728,0 -0.23232,0.08448 -0.23232,0.2112 v 0.39072 c 0,0.14784 0.09504,0.25344 0.23232,0.25344 h 6.35712 c 0.12672,0 0.24288,-0.11616 0.24288,-0.25344 v -0.39072 c 0,-0.13728 -0.08448,-0.2112 -0.24288,-0.2112 z"
     id="path1312"
     inkscape:connector-curvature="0"
     style="fill:#ffffff" /><path
     d="m 107.14176,2.3020801 h -6.35712 c -0.13728,0 -0.23232,0.08448 -0.23232,0.2112 v 0.39072 c 0,0.14784 0.095,0.25344 0.23232,0.25344 h 6.35712 c 0.12672,0 0.24288,-0.11616 0.24288,-0.25344 v -0.39072 c 0,-0.13728 -0.0845,-0.2112 -0.24288,-0.2112 z"
     id="path1314"
     inkscape:connector-curvature="0"
     style="fill:#ffffff" /><path
     d="m 113.47776,2.3020801 h -6.35712 c -0.13728,0 -0.23232,0.08448 -0.23232,0.2112 v 0.39072 c 0,0.14784 0.095,0.25344 0.23232,0.25344 h 6.35712 c 0.12672,0 0.24288,-0.11616 0.24288,-0.25344 v -0.39072 c 0,-0.13728 -0.0845,-0.2112 -0.24288,-0.2112 z"
     id="path1316"
     inkscape:connector-curvature="0"
     style="fill:#ffffff" /></g>
</g></g><g
       id="g84"
       style="fill:#ffffff"><g
         clip-path="url(#clipPath90)"
         id="g86"
         style="fill:#ffffff" /></g><g
       id="g92"
       style="fill:#ffffff"><g
         clip-path="url(#clipPath98)"
         id="g94"
         style="fill:#ffffff" /></g><g
       id="g100"
       style="fill:#ffffff"><g
         clip-path="url(#clipPath106)"
         id="g102"
         style="fill:#ffffff"><g
   aria-label="/ // __ `/ __ "
   transform="matrix(1,0,0,-1,93.984,687.22)"
   style="font-variant:normal;font-weight:normal;font-size:10.56000042px;font-family:'Courier 10 Pitch';-inkscape-font-specification:CourierNewPSMT;writing-mode:lr-tb;fill:#ffffff;fill-opacity:1;fill-rule:nonzero;stroke:none"
   id="text110"><path
     d="M 2.0169601,0.13728001 5.2588802,-6.8428803 c 0.03168,-0.06336 0.0528,-0.12672 0.0528,-0.19008 0,-0.20064 -0.17952,-0.34848 -0.3696,-0.34848 -0.2112,0 -0.3168,0.14784 -0.46464,0.45408 L 1.25664,0.01056 c -0.03168,0.07392 -0.0528,0.14784001 -0.0528,0.21120001 0,0.20064001 0.1689601,0.35904001 0.3590401,0.35904001 0.22176,0 0.32736,-0.1584 0.45408,-0.44352001 z"
     id="path1319"
     inkscape:connector-curvature="0"
     style="fill:#ffffff" /><path
     d="m 14.61504,0.13728001 3.24192,-6.98016031 c 0.03168,-0.06336 0.0528,-0.12672 0.0528,-0.19008 0,-0.20064 -0.17952,-0.34848 -0.3696,-0.34848 -0.2112,0 -0.3168,0.14784 -0.46464,0.45408 L 13.85472,0.01056 c -0.03168,0.07392 -0.0528,0.14784001 -0.0528,0.21120001 0,0.20064001 0.16896,0.35904001 0.35904,0.35904001 0.22176,0 0.32736,-0.1584 0.45408,-0.44352001 z"
     id="path1321"
     inkscape:connector-curvature="0"
     style="fill:#ffffff" /><path
     d="m 20.95104,0.13728001 3.24192,-6.98016031 c 0.03168,-0.06336 0.0528,-0.12672 0.0528,-0.19008 0,-0.20064 -0.17952,-0.34848 -0.3696,-0.34848 -0.2112,0 -0.3168,0.14784 -0.46464,0.45408 L 20.19072,0.01056 c -0.03168,0.07392 -0.0528,0.14784001 -0.0528,0.21120001 0,0.20064001 0.16896,0.35904001 0.35904,0.35904001 0.22176,0 0.32736,-0.1584 0.45408,-0.44352001 z"
     id="path1323"
     inkscape:connector-curvature="0"
     style="fill:#ffffff" /><path
     d="m 37.88928,2.3020801 h -6.35712 c -0.13728,0 -0.23232,0.08448 -0.23232,0.2112 v 0.39072 c 0,0.14784 0.09504,0.25344 0.23232,0.25344 h 6.35712 c 0.12672,0 0.24288,-0.11616 0.24288,-0.25344 v -0.39072 c 0,-0.13728 -0.08448,-0.2112 -0.24288,-0.2112 z"
     id="path1325"
     inkscape:connector-curvature="0"
     style="fill:#ffffff" /><path
     d="m 44.151359,2.3020801 h -6.35712 c -0.13728,0 -0.23232,0.08448 -0.23232,0.2112 v 0.39072 c 0,0.14784 0.09504,0.25344 0.23232,0.25344 h 6.35712 c 0.12672,0 0.24288,-0.11616 0.24288,-0.25344 v -0.39072 c 0,-0.13728 -0.08448,-0.2112 -0.24288,-0.2112 z"
     id="path1327"
     inkscape:connector-curvature="0"
     style="fill:#ffffff" /><path
     d="m 54.542399,-5.3328002 0.13728,-0.27456 -2.46048,-1.4361601 c -0.02112,-0.01056 -0.0528,-0.02112 -0.07392,-0.02112 -0.1056,0 -0.19008,0.0528 -0.24288,0.1584 l -0.16896,0.30624 c -0.02112,0.03168 -0.02112,0.08448 -0.02112,0.11616 0,0.08448 0.0528,0.16896 0.13728,0.2006401 z"
     id="path1329"
     inkscape:connector-curvature="0"
     style="fill:#ffffff" /><path
     d="m 58.745281,0.13728001 3.24192,-6.98016031 c 0.03168,-0.06336 0.0528,-0.12672 0.0528,-0.19008 0,-0.20064 -0.17952,-0.34848 -0.3696,-0.34848 -0.2112,0 -0.3168,0.14784 -0.46464,0.45408 l -3.2208,6.9379203 c -0.03168,0.07392 -0.0528,0.14784001 -0.0528,0.21120001 0,0.20064001 0.16896,0.35904001 0.35904,0.35904001 0.22176,0 0.32736,-0.1584 0.45408,-0.44352001 z"
     id="path1331"
     inkscape:connector-curvature="0"
     style="fill:#ffffff" /><path
     d="m 75.683521,2.3020801 h -6.35712 c -0.13728,0 -0.23232,0.08448 -0.23232,0.2112 v 0.39072 c 0,0.14784 0.09504,0.25344 0.23232,0.25344 h 6.35712 c 0.12672,0 0.24288,-0.11616 0.24288,-0.25344 v -0.39072 c 0,-0.13728 -0.08448,-0.2112 -0.24288,-0.2112 z"
     id="path1333"
     inkscape:connector-curvature="0"
     style="fill:#ffffff" /><path
     d="m 81.945598,2.3020801 h -6.35712 c -0.13728,0 -0.23232,0.08448 -0.23232,0.2112 v 0.39072 c 0,0.14784 0.09504,0.25344 0.23232,0.25344 h 6.35712 c 0.12672,0 0.24288,-0.11616 0.24288,-0.25344 v -0.39072 c 0,-0.13728 -0.08448,-0.2112 -0.24288,-0.2112 z"
     id="path1335"
     inkscape:connector-curvature="0"
     style="fill:#ffffff" /></g>
</g></g><g
       id="g112"
       style="fill:#ffffff"><g
         clip-path="url(#clipPath118)"
         id="g114"
         style="fill:#ffffff"><g
   aria-label="\"
   transform="matrix(1,0,0,-1,182.18,687.22)"
   style="font-variant:normal;font-weight:normal;font-size:10.56000042px;font-family:'Courier 10 Pitch';-inkscape-font-specification:CourierNewPSMT;writing-mode:lr-tb;fill:#ffffff;fill-opacity:1;fill-rule:nonzero;stroke:none"
   id="text122"><path
     d="m 4.6041602,0.34848001 c 0.06336,0.13728001 0.20064,0.23232001 0.33792,0.23232001 0.20064,0 0.35904,-0.1584 0.35904,-0.35904001 0,-0.06336 -0.02112,-0.13728001 -0.0528,-0.21120001 L 1.9219201,-7.1385603 c -0.0528,-0.12672 -0.22176,-0.23232 -0.3696,-0.23232 -0.19008,0 -0.3484801,0.14784 -0.3484801,0.33792 0,0.06336 0.01056,0.12672 0.04224,0.19008 z"
     id="path1338"
     inkscape:connector-curvature="0"
     style="fill:#ffffff" /></g>
</g></g><g
       id="g124"
       style="fill:#ffffff"><g
         clip-path="url(#clipPath130)"
         id="g126"
         style="fill:#ffffff"><g
   aria-label="/ ___/ / / / / ___/ / __ "
   transform="matrix(1,0,0,-1,188.54,687.22)"
   style="font-variant:normal;font-weight:normal;font-size:10.56000042px;font-family:'Courier 10 Pitch';-inkscape-font-specification:CourierNewPSMT;writing-mode:lr-tb;fill:#ffffff;fill-opacity:1;fill-rule:nonzero;stroke:none"
   id="text134"><path
     d="M 2.0169601,0.13728001 5.2588802,-6.8428803 c 0.03168,-0.06336 0.0528,-0.12672 0.0528,-0.19008 0,-0.20064 -0.17952,-0.34848 -0.3696,-0.34848 -0.2112,0 -0.3168,0.14784 -0.46464,0.45408 L 1.25664,0.01056 c -0.03168,0.07392 -0.0528,0.14784001 -0.0528,0.21120001 0,0.20064001 0.1689601,0.35904001 0.3590401,0.35904001 0.22176,0 0.32736,-0.1584 0.45408,-0.44352001 z"
     id="path1341"
     inkscape:connector-curvature="0"
     style="fill:#ffffff" /><path
     d="m 18.93408,2.3020801 h -6.35712 c -0.13728,0 -0.23232,0.08448 -0.23232,0.2112 v 0.39072 c 0,0.14784 0.09504,0.25344 0.23232,0.25344 h 6.35712 c 0.12672,0 0.24288,-0.11616 0.24288,-0.25344 v -0.39072 c 0,-0.13728 -0.08448,-0.2112 -0.24288,-0.2112 z"
     id="path1343"
     inkscape:connector-curvature="0"
     style="fill:#ffffff" /><path
     d="M 25.31232,2.3020801 H 18.9552 c -0.13728,0 -0.23232,0.08448 -0.23232,0.2112 v 0.39072 c 0,0.14784 0.09504,0.25344 0.23232,0.25344 h 6.35712 c 0.12672,0 0.24288,-0.11616 0.24288,-0.25344 v -0.39072 c 0,-0.13728 -0.08448,-0.2112 -0.24288,-0.2112 z"
     id="path1345"
     inkscape:connector-curvature="0"
     style="fill:#ffffff" /><path
     d="m 31.55328,2.3020801 h -6.357121 c -0.13728,0 -0.23232,0.08448 -0.23232,0.2112 v 0.39072 c 0,0.14784 0.09504,0.25344 0.23232,0.25344 h 6.357121 c 0.12672,0 0.24288,-0.11616 0.24288,-0.25344 v -0.39072 c 0,-0.13728 -0.08448,-0.2112 -0.24288,-0.2112 z"
     id="path1347"
     inkscape:connector-curvature="0"
     style="fill:#ffffff" /><path
     d="m 33.54912,0.13728001 3.24192,-6.98016031 c 0.03168,-0.06336 0.0528,-0.12672 0.0528,-0.19008 0,-0.20064 -0.17952,-0.34848 -0.3696,-0.34848 -0.2112,0 -0.3168,0.14784 -0.46464,0.45408 L 32.7888,0.01056 c -0.03168,0.07392 -0.0528,0.14784001 -0.0528,0.21120001 0,0.20064001 0.16896,0.35904001 0.35904,0.35904001 0.22176,0 0.32736,-0.1584 0.45408,-0.44352001 z"
     id="path1349"
     inkscape:connector-curvature="0"
     style="fill:#ffffff" /><path
     d="m 52.409279,0.13728001 3.24192,-6.98016031 c 0.03168,-0.06336 0.0528,-0.12672 0.0528,-0.19008 0,-0.20064 -0.17952,-0.34848 -0.3696,-0.34848 -0.2112,0 -0.3168,0.14784 -0.46464,0.45408 l -3.2208,6.9379203 c -0.03168,0.07392 -0.0528,0.14784001 -0.0528,0.21120001 0,0.20064001 0.16896,0.35904001 0.35904,0.35904001 0.22176,0 0.32736,-0.1584 0.45408,-0.44352001 z"
     id="path1351"
     inkscape:connector-curvature="0"
     style="fill:#ffffff" /><path
     d="m 65.007358,0.13728001 3.241921,-6.98016031 c 0.03168,-0.06336 0.0528,-0.12672 0.0528,-0.19008 0,-0.20064 -0.17952,-0.34848 -0.3696,-0.34848 -0.2112,0 -0.3168,0.14784 -0.46464,0.45408 L 64.247038,0.01056 c -0.03168,0.07392 -0.0528,0.14784001 -0.0528,0.21120001 0,0.20064001 0.16896,0.35904001 0.35904,0.35904001 0.22176,0 0.32736,-0.1584 0.45408,-0.44352001 z"
     id="path1353"
     inkscape:connector-curvature="0"
     style="fill:#ffffff" /><path
     d="m 77.605438,0.13728001 3.24192,-6.98016031 c 0.03168,-0.06336 0.0528,-0.12672 0.0528,-0.19008 0,-0.20064 -0.17952,-0.34848 -0.3696,-0.34848 -0.2112,0 -0.3168,0.14784 -0.46464,0.45408 l -3.2208,6.9379203 c -0.03168,0.07392 -0.0528,0.14784001 -0.0528,0.21120001 0,0.20064001 0.16896,0.35904001 0.35904,0.35904001 0.22176,0 0.32736,-0.1584 0.45408,-0.44352001 z"
     id="path1355"
     inkscape:connector-curvature="0"
     style="fill:#ffffff" /><path
     d="m 90.203522,0.13728001 3.24192,-6.98016031 c 0.03168,-0.06336 0.0528,-0.12672 0.0528,-0.19008 0,-0.20064 -0.17952,-0.34848 -0.3696,-0.34848 -0.2112,0 -0.3168,0.14784 -0.46464,0.45408 l -3.2208,6.9379203 c -0.03168,0.07392 -0.0528,0.14784001 -0.0528,0.21120001 0,0.20064001 0.16896,0.35904001 0.35904,0.35904001 0.22176,0 0.32736,-0.1584 0.45408,-0.44352001 z"
     id="path1357"
     inkscape:connector-curvature="0"
     style="fill:#ffffff" /><path
     d="m 107.14176,2.3020801 h -6.35712 c -0.13728,0 -0.23232,0.08448 -0.23232,0.2112 v 0.39072 c 0,0.14784 0.095,0.25344 0.23232,0.25344 h 6.35712 c 0.12672,0 0.24288,-0.11616 0.24288,-0.25344 v -0.39072 c 0,-0.13728 -0.0845,-0.2112 -0.24288,-0.2112 z"
     id="path1359"
     inkscape:connector-curvature="0"
     style="fill:#ffffff" /><path
     d="m 113.47776,2.3020801 h -6.35712 c -0.13728,0 -0.23232,0.08448 -0.23232,0.2112 v 0.39072 c 0,0.14784 0.095,0.25344 0.23232,0.25344 h 6.35712 c 0.12672,0 0.24288,-0.11616 0.24288,-0.25344 v -0.39072 c 0,-0.13728 -0.0845,-0.2112 -0.24288,-0.2112 z"
     id="path1361"
     inkscape:connector-curvature="0"
     style="fill:#ffffff" /><path
     d="m 119.73984,2.3020801 h -6.35712 c -0.13728,0 -0.23232,0.08448 -0.23232,0.2112 v 0.39072 c 0,0.14784 0.095,0.25344 0.23232,0.25344 h 6.35712 c 0.12672,0 0.24288,-0.11616 0.24288,-0.25344 v -0.39072 c 0,-0.13728 -0.0845,-0.2112 -0.24288,-0.2112 z"
     id="path1363"
     inkscape:connector-curvature="0"
     style="fill:#ffffff" /><path
     d="m 121.73568,0.13728001 3.24192,-6.98016031 c 0.0317,-0.06336 0.0528,-0.12672 0.0528,-0.19008 0,-0.20064 -0.17952,-0.34848 -0.3696,-0.34848 -0.2112,0 -0.3168,0.14784 -0.46464,0.45408 l -3.2208,6.9379203 c -0.0317,0.07392 -0.0528,0.14784001 -0.0528,0.21120001 0,0.20064001 0.16896,0.35904001 0.35904,0.35904001 0.22176,0 0.32736,-0.1584 0.45408,-0.44352001 z"
     id="path1365"
     inkscape:connector-curvature="0"
     style="fill:#ffffff" /><path
     d="m 134.33376,0.13728001 3.24192,-6.98016031 c 0.0317,-0.06336 0.0528,-0.12672 0.0528,-0.19008 0,-0.20064 -0.17952,-0.34848 -0.3696,-0.34848 -0.2112,0 -0.3168,0.14784 -0.46464,0.45408 l -3.2208,6.9379203 c -0.0317,0.07392 -0.0528,0.14784001 -0.0528,0.21120001 0,0.20064001 0.16896,0.35904001 0.35904,0.35904001 0.22176,0 0.32736,-0.1584 0.45408,-0.44352001 z"
     id="path1367"
     inkscape:connector-curvature="0"
     style="fill:#ffffff" /><path
     d="M 151.29312,2.3020801 H 144.936 c -0.13728,0 -0.23232,0.08448 -0.23232,0.2112 v 0.39072 c 0,0.14784 0.095,0.25344 0.23232,0.25344 h 6.35712 c 0.12672,0 0.24288,-0.11616 0.24288,-0.25344 v -0.39072 c 0,-0.13728 -0.0845,-0.2112 -0.24288,-0.2112 z"
     id="path1369"
     inkscape:connector-curvature="0"
     style="fill:#ffffff" /><path
     d="M 157.62912,2.3020801 H 151.272 c -0.13728,0 -0.23232,0.08448 -0.23232,0.2112 v 0.39072 c 0,0.14784 0.095,0.25344 0.23232,0.25344 h 6.35712 c 0.12672,0 0.24288,-0.11616 0.24288,-0.25344 v -0.39072 c 0,-0.13728 -0.0845,-0.2112 -0.24288,-0.2112 z"
     id="path1371"
     inkscape:connector-curvature="0"
     style="fill:#ffffff" /></g>
</g></g><g
       id="g136"
       style="fill:#ffffff"><g
         clip-path="url(#clipPath142)"
         id="g138"
         style="fill:#ffffff"><g
   aria-label="\"
   transform="matrix(1,0,0,-1,352.51,687.22)"
   style="font-variant:normal;font-weight:normal;font-size:10.56000042px;font-family:'Courier 10 Pitch';-inkscape-font-specification:CourierNewPSMT;writing-mode:lr-tb;fill:#ffffff;fill-opacity:1;fill-rule:nonzero;stroke:none"
   id="text146"><path
     d="m 4.6041602,0.34848001 c 0.06336,0.13728001 0.20064,0.23232001 0.33792,0.23232001 0.20064,0 0.35904,-0.1584 0.35904,-0.35904001 0,-0.06336 -0.02112,-0.13728001 -0.0528,-0.21120001 L 1.9219201,-7.1385603 c -0.0528,-0.12672 -0.22176,-0.23232 -0.3696,-0.23232 -0.19008,0 -0.3484801,0.14784 -0.3484801,0.33792 0,0.06336 0.01056,0.12672 0.04224,0.19008 z"
     id="path1374"
     inkscape:connector-curvature="0"
     style="fill:#ffffff" /></g>
</g></g><g
       id="g148"
       style="fill:#ffffff"><g
         clip-path="url(#clipPath154)"
         id="g150"
         style="fill:#ffffff" /></g><g
       id="g156"
       style="fill:#ffffff"><g
         clip-path="url(#clipPath162)"
         id="g158"
         style="fill:#ffffff"><g
   aria-label="| / /"
   transform="matrix(1,0,0,-1,365.11,687.22)"
   style="font-variant:normal;font-weight:normal;font-size:10.56000042px;font-family:'Courier 10 Pitch';-inkscape-font-specification:CourierNewPSMT;writing-mode:lr-tb;fill:#ffffff;fill-opacity:1;fill-rule:nonzero;stroke:none"
   id="text166"><path
     d="M 3.6115201,2.4921601 V -8.0678403 c -0.01056,-0.13728 -0.19008,-0.25344 -0.43296,-0.25344 -0.24288,0 -0.4224,0.11616 -0.43296,0.25344 V 2.4921601 c 0.01056,0.13728 0.19008,0.264 0.43296,0.264 0.24288,0 0.4224,-0.12672 0.43296,-0.264 z"
     id="path1377"
     inkscape:connector-curvature="0"
     style="fill:#ffffff" /><path
     d="m 14.59392,0.13728001 3.24192,-6.98016031 c 0.03168,-0.06336 0.0528,-0.12672 0.0528,-0.19008 0,-0.20064 -0.17952,-0.34848 -0.3696,-0.34848 -0.2112,0 -0.3168,0.14784 -0.46464,0.45408 L 13.8336,0.01056 c -0.03168,0.07392 -0.0528,0.14784001 -0.0528,0.21120001 0,0.20064001 0.16896,0.35904001 0.35904,0.35904001 0.22176,0 0.32736,-0.1584 0.45408,-0.44352001 z"
     id="path1379"
     inkscape:connector-curvature="0"
     style="fill:#ffffff" /><path
     d="M 27.191999,0.13728001 30.43392,-6.8428803 c 0.03168,-0.06336 0.0528,-0.12672 0.0528,-0.19008 0,-0.20064 -0.179521,-0.34848 -0.369601,-0.34848 -0.2112,0 -0.3168,0.14784 -0.46464,0.45408 l -3.2208,6.9379203 c -0.03168,0.07392 -0.0528,0.14784001 -0.0528,0.21120001 0,0.20064001 0.16896,0.35904001 0.35904,0.35904001 0.22176,0 0.32736,-0.1584 0.45408,-0.44352001 z"
     id="path1381"
     inkscape:connector-curvature="0"
     style="fill:#ffffff" /></g>
</g></g><g
       id="g168"
       style="fill:#ffffff"><g
         clip-path="url(#clipPath174)"
         id="g170"
         style="fill:#ffffff" /></g><g
       id="g176"
       style="fill:#ffffff"><g
         clip-path="url(#clipPath182)"
         id="g178"
         style="fill:#ffffff" /></g><g
       id="g184"
       style="fill:#ffffff"><g
         clip-path="url(#clipPath190)"
         id="g186"
         style="fill:#ffffff"><g
   aria-label="_/ // /_/ / /_/ / / / /_/ / / / / /_/ / |/ / "
   transform="matrix(1,0,0,-1,81.384,675.34)"
   style="font-variant:normal;font-weight:normal;font-size:10.56000042px;font-family:'Courier 10 Pitch';-inkscape-font-specification:CourierNewPSMT;writing-mode:lr-tb;fill:#ffffff;fill-opacity:1;fill-rule:nonzero;stroke:none"
   id="text194"><path
     d="M 6.3571203,2.3020801 H 0 c -0.13728001,0 -0.23232001,0.08448 -0.23232001,0.2112 v 0.39072 c 0,0.14784 0.09504,0.25344 0.23232001,0.25344 h 6.3571203 c 0.12672,0 0.24288,-0.11616 0.24288,-0.25344 v -0.39072 c 0,-0.13728 -0.08448,-0.2112 -0.24288,-0.2112 z"
     id="path1384"
     inkscape:connector-curvature="0"
     style="fill:#ffffff" /><path
     d="m 8.35296,0.13728001 3.24192,-6.98016031 c 0.03168,-0.06336 0.0528,-0.12672 0.0528,-0.19008 0,-0.20064 -0.17952,-0.34848 -0.3696,-0.34848 -0.2112,0 -0.3168,0.14784 -0.46464,0.45408 L 7.59264,0.01056 c -0.03168,0.07392 -0.0528,0.14784001 -0.0528,0.21120001 0,0.20064001 0.16896,0.35904001 0.35904,0.35904001 0.22176,0 0.32736,-0.1584 0.45408,-0.44352001 z"
     id="path1386"
     inkscape:connector-curvature="0"
     style="fill:#ffffff" /><path
     d="m 20.95104,0.13728001 3.24192,-6.98016031 c 0.03168,-0.06336 0.0528,-0.12672 0.0528,-0.19008 0,-0.20064 -0.17952,-0.34848 -0.3696,-0.34848 -0.2112,0 -0.3168,0.14784 -0.46464,0.45408 L 20.19072,0.01056 c -0.03168,0.07392 -0.0528,0.14784001 -0.0528,0.21120001 0,0.20064001 0.16896,0.35904001 0.35904,0.35904001 0.22176,0 0.32736,-0.1584 0.45408,-0.44352001 z"
     id="path1388"
     inkscape:connector-curvature="0"
     style="fill:#ffffff" /><path
     d="M 27.213119,0.13728001 30.45504,-6.8428803 c 0.03168,-0.06336 0.0528,-0.12672 0.0528,-0.19008 0,-0.20064 -0.17952,-0.34848 -0.3696,-0.34848 -0.2112,0 -0.3168,0.14784 -0.46464,0.45408 L 26.452799,0.01056 c -0.03168,0.07392 -0.0528,0.14784001 -0.0528,0.21120001 0,0.20064001 0.16896,0.35904001 0.35904,0.35904001 0.22176,0 0.32736,-0.1584 0.45408,-0.44352001 z"
     id="path1390"
     inkscape:connector-curvature="0"
     style="fill:#ffffff" /><path
     d="m 39.811199,0.13728001 3.24192,-6.98016031 c 0.03168,-0.06336 0.0528,-0.12672 0.0528,-0.19008 0,-0.20064 -0.17952,-0.34848 -0.3696,-0.34848 -0.2112,0 -0.3168,0.14784 -0.46464,0.45408 l -3.2208,6.9379203 c -0.03168,0.07392 -0.0528,0.14784001 -0.0528,0.21120001 0,0.20064001 0.16896,0.35904001 0.35904,0.35904001 0.22176,0 0.32736,-0.1584 0.45408,-0.44352001 z"
     id="path1392"
     inkscape:connector-curvature="0"
     style="fill:#ffffff" /><path
     d="m 50.487362,2.3020801 h -6.357121 c -0.13728,0 -0.23232,0.08448 -0.23232,0.2112 v 0.39072 c 0,0.14784 0.09504,0.25344 0.23232,0.25344 h 6.357121 c 0.12672,0 0.24288,-0.11616 0.24288,-0.25344 v -0.39072 c 0,-0.13728 -0.08448,-0.2112 -0.24288,-0.2112 z"
     id="path1394"
     inkscape:connector-curvature="0"
     style="fill:#ffffff" /><path
     d="m 52.409279,0.13728001 3.24192,-6.98016031 c 0.03168,-0.06336 0.0528,-0.12672 0.0528,-0.19008 0,-0.20064 -0.17952,-0.34848 -0.3696,-0.34848 -0.2112,0 -0.3168,0.14784 -0.46464,0.45408 l -3.2208,6.9379203 c -0.03168,0.07392 -0.0528,0.14784001 -0.0528,0.21120001 0,0.20064001 0.16896,0.35904001 0.35904,0.35904001 0.22176,0 0.32736,-0.1584 0.45408,-0.44352001 z"
     id="path1396"
     inkscape:connector-curvature="0"
     style="fill:#ffffff" /><path
     d="m 65.007358,0.13728001 3.241921,-6.98016031 c 0.03168,-0.06336 0.0528,-0.12672 0.0528,-0.19008 0,-0.20064 -0.17952,-0.34848 -0.3696,-0.34848 -0.2112,0 -0.3168,0.14784 -0.46464,0.45408 L 64.247038,0.01056 c -0.03168,0.07392 -0.0528,0.14784001 -0.0528,0.21120001 0,0.20064001 0.16896,0.35904001 0.35904,0.35904001 0.22176,0 0.32736,-0.1584 0.45408,-0.44352001 z"
     id="path1398"
     inkscape:connector-curvature="0"
     style="fill:#ffffff" /><path
     d="m 77.605438,0.13728001 3.24192,-6.98016031 c 0.03168,-0.06336 0.0528,-0.12672 0.0528,-0.19008 0,-0.20064 -0.17952,-0.34848 -0.3696,-0.34848 -0.2112,0 -0.3168,0.14784 -0.46464,0.45408 l -3.2208,6.9379203 c -0.03168,0.07392 -0.0528,0.14784001 -0.0528,0.21120001 0,0.20064001 0.16896,0.35904001 0.35904,0.35904001 0.22176,0 0.32736,-0.1584 0.45408,-0.44352001 z"
     id="path1400"
     inkscape:connector-curvature="0"
     style="fill:#ffffff" /><path
     d="m 88.281597,2.3020801 h -6.35712 c -0.13728,0 -0.23232,0.08448 -0.23232,0.2112 v 0.39072 c 0,0.14784 0.09504,0.25344 0.23232,0.25344 h 6.35712 c 0.12672,0 0.24288,-0.11616 0.24288,-0.25344 v -0.39072 c 0,-0.13728 -0.08448,-0.2112 -0.24288,-0.2112 z"
     id="path1402"
     inkscape:connector-curvature="0"
     style="fill:#ffffff" /><path
     d="m 90.203522,0.13728001 3.24192,-6.98016031 c 0.03168,-0.06336 0.0528,-0.12672 0.0528,-0.19008 0,-0.20064 -0.17952,-0.34848 -0.3696,-0.34848 -0.2112,0 -0.3168,0.14784 -0.46464,0.45408 l -3.2208,6.9379203 c -0.03168,0.07392 -0.0528,0.14784001 -0.0528,0.21120001 0,0.20064001 0.16896,0.35904001 0.35904,0.35904001 0.22176,0 0.32736,-0.1584 0.45408,-0.44352001 z"
     id="path1404"
     inkscape:connector-curvature="0"
     style="fill:#ffffff" /><path
     d="m 102.8016,0.13728001 3.24192,-6.98016031 c 0.0317,-0.06336 0.0528,-0.12672 0.0528,-0.19008 0,-0.20064 -0.17952,-0.34848 -0.3696,-0.34848 -0.2112,0 -0.3168,0.14784 -0.46464,0.45408 l -3.2208,6.9379203 c -0.0317,0.07392 -0.0528,0.14784001 -0.0528,0.21120001 0,0.20064001 0.16896,0.35904001 0.35904,0.35904001 0.22176,0 0.32736,-0.1584 0.45408,-0.44352001 z"
     id="path1406"
     inkscape:connector-curvature="0"
     style="fill:#ffffff" /><path
     d="m 115.39968,0.13728001 3.24192,-6.98016031 c 0.0317,-0.06336 0.0528,-0.12672 0.0528,-0.19008 0,-0.20064 -0.17952,-0.34848 -0.3696,-0.34848 -0.2112,0 -0.3168,0.14784 -0.46464,0.45408 l -3.2208,6.9379203 c -0.0317,0.07392 -0.0528,0.14784001 -0.0528,0.21120001 0,0.20064001 0.16896,0.35904001 0.35904,0.35904001 0.22176,0 0.32736,-0.1584 0.45408,-0.44352001 z"
     id="path1408"
     inkscape:connector-curvature="0"
     style="fill:#ffffff" /><path
     d="m 153.28896,0.13728001 3.24192,-6.98016031 c 0.0317,-0.06336 0.0528,-0.12672 0.0528,-0.19008 0,-0.20064 -0.17952,-0.34848 -0.3696,-0.34848 -0.2112,0 -0.3168,0.14784 -0.46464,0.45408 l -3.2208,6.9379203 c -0.0317,0.07392 -0.0528,0.14784001 -0.0528,0.21120001 0,0.20064001 0.16896,0.35904001 0.35904,0.35904001 0.22176,0 0.32736,-0.1584 0.45408,-0.44352001 z"
     id="path1410"
     inkscape:connector-curvature="0"
     style="fill:#ffffff" /><path
     d="m 165.88705,0.13728001 3.24192,-6.98016031 c 0.0317,-0.06336 0.0528,-0.12672 0.0528,-0.19008 0,-0.20064 -0.17952,-0.34848 -0.3696,-0.34848 -0.2112,0 -0.3168,0.14784 -0.46464,0.45408 l -3.2208,6.9379203 c -0.0317,0.07392 -0.0528,0.14784001 -0.0528,0.21120001 0,0.20064001 0.16896,0.35904001 0.35904,0.35904001 0.22176,0 0.32736,-0.1584 0.45408,-0.44352001 z"
     id="path1412"
     inkscape:connector-curvature="0"
     style="fill:#ffffff" /><path
     d="m 176.48928,2.3020801 h -6.35712 c -0.13728,0 -0.23232,0.08448 -0.23232,0.2112 v 0.39072 c 0,0.14784 0.095,0.25344 0.23232,0.25344 h 6.35712 c 0.12672,0 0.24288,-0.11616 0.24288,-0.25344 v -0.39072 c 0,-0.13728 -0.0845,-0.2112 -0.24288,-0.2112 z"
     id="path1414"
     inkscape:connector-curvature="0"
     style="fill:#ffffff" /><path
     d="m 178.48511,0.13728001 3.24193,-6.98016031 c 0.0317,-0.06336 0.0528,-0.12672 0.0528,-0.19008 0,-0.20064 -0.17952,-0.34848 -0.3696,-0.34848 -0.2112,0 -0.3168,0.14784 -0.46464,0.45408 L 177.72479,0.01056 c -0.0317,0.07392 -0.0528,0.14784001 -0.0528,0.21120001 0,0.20064001 0.16896,0.35904001 0.35904,0.35904001 0.22176,0 0.32736,-0.1584 0.45408,-0.44352001 z"
     id="path1416"
     inkscape:connector-curvature="0"
     style="fill:#ffffff" /><path
     d="m 191.0832,0.13728001 3.24192,-6.98016031 c 0.0317,-0.06336 0.0528,-0.12672 0.0528,-0.19008 0,-0.20064 -0.17952,-0.34848 -0.3696,-0.34848 -0.2112,0 -0.3168,0.14784 -0.46464,0.45408 l -3.2208,6.9379203 c -0.0317,0.07392 -0.0528,0.14784001 -0.0528,0.21120001 0,0.20064001 0.16896,0.35904001 0.35904,0.35904001 0.22176,0 0.32736,-0.1584 0.45408,-0.44352001 z"
     id="path1418"
     inkscape:connector-curvature="0"
     style="fill:#ffffff" /><path
     d="m 203.68128,0.13728001 3.24192,-6.98016031 c 0.0317,-0.06336 0.0528,-0.12672 0.0528,-0.19008 0,-0.20064 -0.17952,-0.34848 -0.3696,-0.34848 -0.2112,0 -0.3168,0.14784 -0.46464,0.45408 l -3.2208,6.9379203 c -0.0317,0.07392 -0.0528,0.14784001 -0.0528,0.21120001 0,0.20064001 0.16896,0.35904001 0.35904,0.35904001 0.22176,0 0.32736,-0.1584 0.45408,-0.44352001 z"
     id="path1420"
     inkscape:connector-curvature="0"
     style="fill:#ffffff" /><path
     d="m 222.54144,0.13728001 3.24192,-6.98016031 c 0.0317,-0.06336 0.0528,-0.12672 0.0528,-0.19008 0,-0.20064 -0.17952,-0.34848 -0.3696,-0.34848 -0.2112,0 -0.3168,0.14784 -0.46464,0.45408 l -3.2208,6.9379203 c -0.0317,0.07392 -0.0528,0.14784001 -0.0528,0.21120001 0,0.20064001 0.16896,0.35904001 0.35904,0.35904001 0.22176,0 0.32736,-0.1584 0.45408,-0.44352001 z"
     id="path1422"
     inkscape:connector-curvature="0"
     style="fill:#ffffff" /><path
     d="m 235.13952,0.13728001 3.24192,-6.98016031 c 0.0317,-0.06336 0.0528,-0.12672 0.0528,-0.19008 0,-0.20064 -0.17952,-0.34848 -0.3696,-0.34848 -0.2112,0 -0.3168,0.14784 -0.46464,0.45408 L 234.3792,0.01056 c -0.0317,0.07392 -0.0528,0.14784001 -0.0528,0.21120001 0,0.20064001 0.16896,0.35904001 0.35904,0.35904001 0.22176,0 0.32736,-0.1584 0.45408,-0.44352001 z"
     id="path1424"
     inkscape:connector-curvature="0"
     style="fill:#ffffff" /><path
     d="m 247.85377,0.13728001 3.24192,-6.98016031 c 0.0317,-0.06336 0.0528,-0.12672 0.0528,-0.19008 0,-0.20064 -0.17952,-0.34848 -0.3696,-0.34848 -0.2112,0 -0.3168,0.14784 -0.46464,0.45408 l -3.2208,6.9379203 c -0.0317,0.07392 -0.0528,0.14784001 -0.0528,0.21120001 0,0.20064001 0.16896,0.35904001 0.35904,0.35904001 0.22176,0 0.32736,-0.1584 0.45408,-0.44352001 z"
     id="path1426"
     inkscape:connector-curvature="0"
     style="fill:#ffffff" /><path
     d="m 258.43488,2.3020801 h -6.35712 c -0.13728,0 -0.23232,0.08448 -0.23232,0.2112 v 0.39072 c 0,0.14784 0.095,0.25344 0.23232,0.25344 h 6.35712 c 0.12672,0 0.24288,-0.11616 0.24288,-0.25344 v -0.39072 c 0,-0.13728 -0.0845,-0.2112 -0.24288,-0.2112 z"
     id="path1428"
     inkscape:connector-curvature="0"
     style="fill:#ffffff" /><path
     d="m 260.43072,0.13728001 3.24192,-6.98016031 c 0.0317,-0.06336 0.0528,-0.12672 0.0528,-0.19008 0,-0.20064 -0.17952,-0.34848 -0.3696,-0.34848 -0.2112,0 -0.3168,0.14784 -0.46464,0.45408 L 259.6704,0.01056 c -0.0317,0.07392 -0.0528,0.14784001 -0.0528,0.21120001 0,0.20064001 0.16896,0.35904001 0.35904,0.35904001 0.22176,0 0.32736,-0.1584 0.45408,-0.44352001 z"
     id="path1430"
     inkscape:connector-curvature="0"
     style="fill:#ffffff" /><path
     d="m 273.0288,0.13728001 3.24192,-6.98016031 c 0.0317,-0.06336 0.0528,-0.12672 0.0528,-0.19008 0,-0.20064 -0.17952,-0.34848 -0.3696,-0.34848 -0.2112,0 -0.3168,0.14784 -0.46464,0.45408 l -3.2208,6.9379203 c -0.0317,0.07392 -0.0528,0.14784001 -0.0528,0.21120001 0,0.20064001 0.16896,0.35904001 0.35904,0.35904001 0.22176,0 0.32736,-0.1584 0.45408,-0.44352001 z"
     id="path1432"
     inkscape:connector-curvature="0"
     style="fill:#ffffff" /><path
     d="M 287.22144,2.4921601 V -8.0678403 c -0.0106,-0.13728 -0.19008,-0.25344 -0.43296,-0.25344 -0.24288,0 -0.4224,0.11616 -0.43296,0.25344 V 2.4921601 c 0.0106,0.13728 0.19008,0.264 0.43296,0.264 0.24288,0 0.4224,-0.12672 0.43296,-0.264 z"
     id="path1434"
     inkscape:connector-curvature="0"
     style="fill:#ffffff" /><path
     d="m 291.88897,0.13728001 3.24192,-6.98016031 c 0.0317,-0.06336 0.0528,-0.12672 0.0528,-0.19008 0,-0.20064 -0.17952,-0.34848 -0.3696,-0.34848 -0.2112,0 -0.3168,0.14784 -0.46464,0.45408 l -3.2208,6.9379203 c -0.0317,0.07392 -0.0528,0.14784001 -0.0528,0.21120001 0,0.20064001 0.16896,0.35904001 0.35904,0.35904001 0.22176,0 0.32736,-0.1584 0.45408,-0.44352001 z"
     id="path1436"
     inkscape:connector-curvature="0"
     style="fill:#ffffff" /><path
     d="m 304.48705,0.13728001 3.24192,-6.98016031 c 0.0317,-0.06336 0.0528,-0.12672 0.0528,-0.19008 0,-0.20064 -0.17952,-0.34848 -0.3696,-0.34848 -0.2112,0 -0.3168,0.14784 -0.46464,0.45408 l -3.2208,6.9379203 c -0.0317,0.07392 -0.0528,0.14784001 -0.0528,0.21120001 0,0.20064001 0.16896,0.35904001 0.35904,0.35904001 0.22176,0 0.32736,-0.1584 0.45408,-0.44352001 z"
     id="path1438"
     inkscape:connector-curvature="0"
     style="fill:#ffffff" /></g>
</g></g><g
       id="g196"
       style="fill:#ffffff"><g
         clip-path="url(#clipPath202)"
         id="g198"
         style="fill:#ffffff" /></g><g
       id="g204"
       style="fill:#ffffff"><g
         clip-path="url(#clipPath210)"
         id="g206"
         style="fill:#ffffff"><g
   aria-label="/___/"
   transform="matrix(1,0,0,-1,75.024,663.46)"
   style="font-variant:normal;font-weight:normal;font-size:10.56000042px;font-family:'Courier 10 Pitch';-inkscape-font-specification:CourierNewPSMT;writing-mode:lr-tb;fill:#ffffff;fill-opacity:1;fill-rule:nonzero;stroke:none"
   id="text214"><path
     d="M 2.0169601,0.13728001 5.2588802,-6.8428803 c 0.03168,-0.06336 0.0528,-0.12672 0.0528,-0.19008 0,-0.20064 -0.17952,-0.34848 -0.3696,-0.34848 -0.2112,0 -0.3168,0.14784 -0.46464,0.45408 L 1.25664,0.01056 c -0.03168,0.07392 -0.0528,0.14784001 -0.0528,0.21120001 0,0.20064001 0.1689601,0.35904001 0.3590401,0.35904001 0.22176,0 0.32736,-0.1584 0.45408,-0.44352001 z"
     id="path1441"
     inkscape:connector-curvature="0"
     style="fill:#ffffff" /><path
     d="M 12.69312,2.3020801 H 6.336 c -0.13728,0 -0.23232,0.08448 -0.23232,0.2112 v 0.39072 c 0,0.14784 0.09504,0.25344 0.23232,0.25344 h 6.35712 c 0.12672,0 0.24288,-0.11616 0.24288,-0.25344 v -0.39072 c 0,-0.13728 -0.08448,-0.2112 -0.24288,-0.2112 z"
     id="path1443"
     inkscape:connector-curvature="0"
     style="fill:#ffffff" /><path
     d="m 19.07136,2.3020801 h -6.35712 c -0.13728,0 -0.23232,0.08448 -0.23232,0.2112 v 0.39072 c 0,0.14784 0.09504,0.25344 0.23232,0.25344 h 6.35712 c 0.12672,0 0.24288,-0.11616 0.24288,-0.25344 v -0.39072 c 0,-0.13728 -0.08448,-0.2112 -0.24288,-0.2112 z"
     id="path1445"
     inkscape:connector-curvature="0"
     style="fill:#ffffff" /><path
     d="M 25.31232,2.3020801 H 18.9552 c -0.13728,0 -0.23232,0.08448 -0.23232,0.2112 v 0.39072 c 0,0.14784 0.09504,0.25344 0.23232,0.25344 h 6.35712 c 0.12672,0 0.24288,-0.11616 0.24288,-0.25344 v -0.39072 c 0,-0.13728 -0.08448,-0.2112 -0.24288,-0.2112 z"
     id="path1447"
     inkscape:connector-curvature="0"
     style="fill:#ffffff" /><path
     d="m 27.308161,0.13728001 3.24192,-6.98016031 c 0.03168,-0.06336 0.0528,-0.12672 0.0528,-0.19008 0,-0.20064 -0.17952,-0.34848 -0.3696,-0.34848 -0.2112,0 -0.3168,0.14784 -0.46464,0.45408 l -3.2208,6.9379203 c -0.03168,0.07392 -0.0528,0.14784001 -0.0528,0.21120001 0,0.20064001 0.16896,0.35904001 0.35904,0.35904001 0.22176,0 0.32736,-0.1584 0.45408,-0.44352001 z"
     id="path1449"
     inkscape:connector-curvature="0"
     style="fill:#ffffff" /></g>
</g></g><g
       id="g216"
       style="fill:#ffffff"><g
         clip-path="url(#clipPath222)"
         id="g218"
         style="fill:#ffffff"><g
   aria-label="\"
   transform="matrix(1,0,0,-1,106.58,663.46)"
   style="font-variant:normal;font-weight:normal;font-size:10.56000042px;font-family:'Courier 10 Pitch';-inkscape-font-specification:CourierNewPSMT;writing-mode:lr-tb;fill:#ffffff;fill-opacity:1;fill-rule:nonzero;stroke:none"
   id="text226"><path
     d="m 4.6041602,0.34848001 c 0.06336,0.13728001 0.20064,0.23232001 0.33792,0.23232001 0.20064,0 0.35904,-0.1584 0.35904,-0.35904001 0,-0.06336 -0.02112,-0.13728001 -0.0528,-0.21120001 L 1.9219201,-7.1385603 c -0.0528,-0.12672 -0.22176,-0.23232 -0.3696,-0.23232 -0.19008,0 -0.3484801,0.14784 -0.3484801,0.33792 0,0.06336 0.01056,0.12672 0.04224,0.19008 z"
     id="path1452"
     inkscape:connector-curvature="0"
     style="fill:#ffffff" /></g>
</g></g><g
       id="g228"
       style="fill:#ffffff"><g
         clip-path="url(#clipPath234)"
         id="g230"
         style="fill:#ffffff"><g
   aria-label="__, /"
   transform="matrix(1,0,0,-1,112.94,663.46)"
   style="font-variant:normal;font-weight:normal;font-size:10.56000042px;font-family:'Courier 10 Pitch';-inkscape-font-specification:CourierNewPSMT;writing-mode:lr-tb;fill:#ffffff;fill-opacity:1;fill-rule:nonzero;stroke:none"
   id="text238"><path
     d="M 6.3571203,2.3020801 H 0 c -0.13728001,0 -0.23232001,0.08448 -0.23232001,0.2112 v 0.39072 c 0,0.14784 0.09504,0.25344 0.23232001,0.25344 h 6.3571203 c 0.12672,0 0.24288,-0.11616 0.24288,-0.25344 v -0.39072 c 0,-0.13728 -0.08448,-0.2112 -0.24288,-0.2112 z"
     id="path1455"
     inkscape:connector-curvature="0"
     style="fill:#ffffff" /><path
     d="M 12.59808,2.3020801 H 6.2409601 c -0.13728,0 -0.23232,0.08448 -0.23232,0.2112 v 0.39072 c 0,0.14784 0.09504,0.25344 0.23232,0.25344 H 12.59808 c 0.12672,0 0.24288,-0.11616 0.24288,-0.25344 v -0.39072 c 0,-0.13728 -0.08448,-0.2112 -0.24288,-0.2112 z"
     id="path1457"
     inkscape:connector-curvature="0"
     style="fill:#ffffff" /><path
     d="M 15.14304,-1.4361601 14.47776,1.18272 C 14.4672,1.22496 14.4672,1.25664 14.4672,1.3094401 c 0,0.08448 0.0528,0.14784 0.1584,0.19008 l 0.3696,0.13728 c 0.03168,0.01056 0.06336,0.02112 0.09504,0.02112 0.09504,0 0.17952,-0.06336 0.23232,-0.16896 l 1.41504,-2.9462402 c 0.03168,-0.06336 0.04224,-0.11616 0.04224,-0.14784 0,-0.06336 -0.06336,-0.1056 -0.16896,-0.1056 h -1.12992 c -0.23232,0 -0.28512,0.0528 -0.33792,0.27456 z"
     id="path1459"
     inkscape:connector-curvature="0"
     style="fill:#ffffff" /><path
     d="M 27.191999,0.13728001 30.43392,-6.8428803 c 0.03168,-0.06336 0.0528,-0.12672 0.0528,-0.19008 0,-0.20064 -0.179521,-0.34848 -0.369601,-0.34848 -0.2112,0 -0.3168,0.14784 -0.46464,0.45408 l -3.2208,6.9379203 c -0.03168,0.07392 -0.0528,0.14784001 -0.0528,0.21120001 0,0.20064001 0.16896,0.35904001 0.35904,0.35904001 0.22176,0 0.32736,-0.1584 0.45408,-0.44352001 z"
     id="path1461"
     inkscape:connector-curvature="0"
     style="fill:#ffffff" /></g>
</g></g><g
       id="g240"
       style="fill:#ffffff"><g
         clip-path="url(#clipPath246)"
         id="g242"
         style="fill:#ffffff"><g
   aria-label="\"
   transform="matrix(1,0,0,-1,144.38,663.46)"
   style="font-variant:normal;font-weight:normal;font-size:10.56000042px;font-family:'Courier 10 Pitch';-inkscape-font-specification:CourierNewPSMT;writing-mode:lr-tb;fill:#ffffff;fill-opacity:1;fill-rule:nonzero;stroke:none"
   id="text250"><path
     d="m 4.6041602,0.34848001 c 0.06336,0.13728001 0.20064,0.23232001 0.33792,0.23232001 0.20064,0 0.35904,-0.1584 0.35904,-0.35904001 0,-0.06336 -0.02112,-0.13728001 -0.0528,-0.21120001 L 1.9219201,-7.1385603 c -0.0528,-0.12672 -0.22176,-0.23232 -0.3696,-0.23232 -0.19008,0 -0.3484801,0.14784 -0.3484801,0.33792 0,0.06336 0.01056,0.12672 0.04224,0.19008 z"
     id="path1464"
     inkscape:connector-curvature="0"
     style="fill:#ffffff" /></g>
</g></g><g
       id="g252"
       style="fill:#ffffff"><g
         clip-path="url(#clipPath258)"
         id="g254"
         style="fill:#ffffff"><g
   aria-label="____/_/ "
   transform="matrix(1,0,0,-1,150.74,663.46)"
   style="font-variant:normal;font-weight:normal;font-size:10.56000042px;font-family:'Courier 10 Pitch';-inkscape-font-specification:CourierNewPSMT;writing-mode:lr-tb;fill:#ffffff;fill-opacity:1;fill-rule:nonzero;stroke:none"
   id="text262"><path
     d="M 6.3571203,2.3020801 H 0 c -0.13728001,0 -0.23232001,0.08448 -0.23232001,0.2112 v 0.39072 c 0,0.14784 0.09504,0.25344 0.23232001,0.25344 h 6.3571203 c 0.12672,0 0.24288,-0.11616 0.24288,-0.25344 v -0.39072 c 0,-0.13728 -0.08448,-0.2112 -0.24288,-0.2112 z"
     id="path1467"
     inkscape:connector-curvature="0"
     style="fill:#ffffff" /><path
     d="M 12.59808,2.3020801 H 6.2409601 c -0.13728,0 -0.23232,0.08448 -0.23232,0.2112 v 0.39072 c 0,0.14784 0.09504,0.25344 0.23232,0.25344 H 12.59808 c 0.12672,0 0.24288,-0.11616 0.24288,-0.25344 v -0.39072 c 0,-0.13728 -0.08448,-0.2112 -0.24288,-0.2112 z"
     id="path1469"
     inkscape:connector-curvature="0"
     style="fill:#ffffff" /><path
     d="m 18.93408,2.3020801 h -6.35712 c -0.13728,0 -0.23232,0.08448 -0.23232,0.2112 v 0.39072 c 0,0.14784 0.09504,0.25344 0.23232,0.25344 h 6.35712 c 0.12672,0 0.24288,-0.11616 0.24288,-0.25344 v -0.39072 c 0,-0.13728 -0.08448,-0.2112 -0.24288,-0.2112 z"
     id="path1471"
     inkscape:connector-curvature="0"
     style="fill:#ffffff" /><path
     d="m 25.196161,2.3020801 h -6.35712 c -0.13728,0 -0.23232,0.08448 -0.23232,0.2112 v 0.39072 c 0,0.14784 0.09504,0.25344 0.23232,0.25344 h 6.35712 c 0.12672,0 0.24288,-0.11616 0.24288,-0.25344 v -0.39072 c 0,-0.13728 -0.08448,-0.2112 -0.24288,-0.2112 z"
     id="path1473"
     inkscape:connector-curvature="0"
     style="fill:#ffffff" /><path
     d="M 27.191999,0.13728001 30.43392,-6.8428803 c 0.03168,-0.06336 0.0528,-0.12672 0.0528,-0.19008 0,-0.20064 -0.179521,-0.34848 -0.369601,-0.34848 -0.2112,0 -0.3168,0.14784 -0.46464,0.45408 l -3.2208,6.9379203 c -0.03168,0.07392 -0.0528,0.14784001 -0.0528,0.21120001 0,0.20064001 0.16896,0.35904001 0.35904,0.35904001 0.22176,0 0.32736,-0.1584 0.45408,-0.44352001 z"
     id="path1475"
     inkscape:connector-curvature="0"
     style="fill:#ffffff" /><path
     d="M 37.794241,2.3020801 H 31.43712 c -0.13728,0 -0.23232,0.08448 -0.23232,0.2112 v 0.39072 c 0,0.14784 0.09504,0.25344 0.23232,0.25344 h 6.357121 c 0.12672,0 0.24288,-0.11616 0.24288,-0.25344 v -0.39072 c 0,-0.13728 -0.08448,-0.2112 -0.24288,-0.2112 z"
     id="path1477"
     inkscape:connector-curvature="0"
     style="fill:#ffffff" /><path
     d="m 39.790081,0.13728001 3.24192,-6.98016031 c 0.03168,-0.06336 0.0528,-0.12672 0.0528,-0.19008 0,-0.20064 -0.17952,-0.34848 -0.3696,-0.34848 -0.2112,0 -0.3168,0.14784 -0.46464,0.45408 l -3.2208,6.9379203 c -0.03168,0.07392 -0.0528,0.14784001 -0.0528,0.21120001 0,0.20064001 0.16896,0.35904001 0.35904,0.35904001 0.22176,0 0.32736,-0.1584 0.45408,-0.44352001 z"
     id="path1479"
     inkscape:connector-curvature="0"
     style="fill:#ffffff" /></g>
</g></g><g
       id="g264"
       style="fill:#ffffff"><g
         clip-path="url(#clipPath270)"
         id="g266"
         style="fill:#ffffff"><g
   aria-label="\"
   transform="matrix(1,0,0,-1,232.73,663.46)"
   style="font-variant:normal;font-weight:normal;font-size:10.56000042px;font-family:'Courier 10 Pitch';-inkscape-font-specification:CourierNewPSMT;writing-mode:lr-tb;fill:#ffffff;fill-opacity:1;fill-rule:nonzero;stroke:none"
   id="text274"><path
     d="m 4.6041602,0.34848001 c 0.06336,0.13728001 0.20064,0.23232001 0.33792,0.23232001 0.20064,0 0.35904,-0.1584 0.35904,-0.35904001 0,-0.06336 -0.02112,-0.13728001 -0.0528,-0.21120001 L 1.9219201,-7.1385603 c -0.0528,-0.12672 -0.22176,-0.23232 -0.3696,-0.23232 -0.19008,0 -0.3484801,0.14784 -0.3484801,0.33792 0,0.06336 0.01056,0.12672 0.04224,0.19008 z"
     id="path1482"
     inkscape:connector-curvature="0"
     style="fill:#ffffff" /></g>
</g></g><g
       id="g276"
       style="fill:#ffffff"><g
         clip-path="url(#clipPath282)"
         id="g278"
         style="fill:#ffffff"><g
   aria-label="____/_/ /_/"
   transform="matrix(1,0,0,-1,238.97,663.46)"
   style="font-variant:normal;font-weight:normal;font-size:10.56000042px;font-family:'Courier 10 Pitch';-inkscape-font-specification:CourierNewPSMT;writing-mode:lr-tb;fill:#ffffff;fill-opacity:1;fill-rule:nonzero;stroke:none"
   id="text286"><path
     d="M 6.3571203,2.3020801 H 0 c -0.13728001,0 -0.23232001,0.08448 -0.23232001,0.2112 v 0.39072 c 0,0.14784 0.09504,0.25344 0.23232001,0.25344 h 6.3571203 c 0.12672,0 0.24288,-0.11616 0.24288,-0.25344 v -0.39072 c 0,-0.13728 -0.08448,-0.2112 -0.24288,-0.2112 z"
     id="path1485"
     inkscape:connector-curvature="0"
     style="fill:#ffffff" /><path
     d="M 12.69312,2.3020801 H 6.336 c -0.13728,0 -0.23232,0.08448 -0.23232,0.2112 v 0.39072 c 0,0.14784 0.09504,0.25344 0.23232,0.25344 h 6.35712 c 0.12672,0 0.24288,-0.11616 0.24288,-0.25344 v -0.39072 c 0,-0.13728 -0.08448,-0.2112 -0.24288,-0.2112 z"
     id="path1487"
     inkscape:connector-curvature="0"
     style="fill:#ffffff" /><path
     d="m 18.9552,2.3020801 h -6.35712 c -0.13728,0 -0.23232,0.08448 -0.23232,0.2112 v 0.39072 c 0,0.14784 0.09504,0.25344 0.23232,0.25344 h 6.35712 c 0.12672,0 0.24288,-0.11616 0.24288,-0.25344 v -0.39072 c 0,-0.13728 -0.08448,-0.2112 -0.24288,-0.2112 z"
     id="path1489"
     inkscape:connector-curvature="0"
     style="fill:#ffffff" /><path
     d="m 25.2912,2.3020801 h -6.35712 c -0.13728,0 -0.23232,0.08448 -0.23232,0.2112 v 0.39072 c 0,0.14784 0.09504,0.25344 0.23232,0.25344 h 6.35712 c 0.12672,0 0.24288,-0.11616 0.24288,-0.25344 v -0.39072 c 0,-0.13728 -0.08448,-0.2112 -0.24288,-0.2112 z"
     id="path1491"
     inkscape:connector-curvature="0"
     style="fill:#ffffff" /><path
     d="M 27.213119,0.13728001 30.45504,-6.8428803 c 0.03168,-0.06336 0.0528,-0.12672 0.0528,-0.19008 0,-0.20064 -0.17952,-0.34848 -0.3696,-0.34848 -0.2112,0 -0.3168,0.14784 -0.46464,0.45408 L 26.452799,0.01056 c -0.03168,0.07392 -0.0528,0.14784001 -0.0528,0.21120001 0,0.20064001 0.16896,0.35904001 0.35904,0.35904001 0.22176,0 0.32736,-0.1584 0.45408,-0.44352001 z"
     id="path1493"
     inkscape:connector-curvature="0"
     style="fill:#ffffff" /><path
     d="m 37.88928,2.3020801 h -6.35712 c -0.13728,0 -0.23232,0.08448 -0.23232,0.2112 v 0.39072 c 0,0.14784 0.09504,0.25344 0.23232,0.25344 h 6.35712 c 0.12672,0 0.24288,-0.11616 0.24288,-0.25344 v -0.39072 c 0,-0.13728 -0.08448,-0.2112 -0.24288,-0.2112 z"
     id="path1495"
     inkscape:connector-curvature="0"
     style="fill:#ffffff" /><path
     d="m 39.811199,0.13728001 3.24192,-6.98016031 c 0.03168,-0.06336 0.0528,-0.12672 0.0528,-0.19008 0,-0.20064 -0.17952,-0.34848 -0.3696,-0.34848 -0.2112,0 -0.3168,0.14784 -0.46464,0.45408 l -3.2208,6.9379203 c -0.03168,0.07392 -0.0528,0.14784001 -0.0528,0.21120001 0,0.20064001 0.16896,0.35904001 0.35904,0.35904001 0.22176,0 0.32736,-0.1584 0.45408,-0.44352001 z"
     id="path1497"
     inkscape:connector-curvature="0"
     style="fill:#ffffff" /><path
     d="m 58.745281,0.13728001 3.24192,-6.98016031 c 0.03168,-0.06336 0.0528,-0.12672 0.0528,-0.19008 0,-0.20064 -0.17952,-0.34848 -0.3696,-0.34848 -0.2112,0 -0.3168,0.14784 -0.46464,0.45408 l -3.2208,6.9379203 c -0.03168,0.07392 -0.0528,0.14784001 -0.0528,0.21120001 0,0.20064001 0.16896,0.35904001 0.35904,0.35904001 0.22176,0 0.32736,-0.1584 0.45408,-0.44352001 z"
     id="path1499"
     inkscape:connector-curvature="0"
     style="fill:#ffffff" /><path
     d="m 69.347519,2.3020801 h -6.357121 c -0.13728,0 -0.23232,0.08448 -0.23232,0.2112 v 0.39072 c 0,0.14784 0.09504,0.25344 0.23232,0.25344 h 6.357121 c 0.12672,0 0.24288,-0.11616 0.24288,-0.25344 v -0.39072 c 0,-0.13728 -0.08448,-0.2112 -0.24288,-0.2112 z"
     id="path1501"
     inkscape:connector-curvature="0"
     style="fill:#ffffff" /><path
     d="m 71.343361,0.13728001 3.24192,-6.98016031 c 0.03168,-0.06336 0.0528,-0.12672 0.0528,-0.19008 0,-0.20064 -0.17952,-0.34848 -0.3696,-0.34848 -0.2112,0 -0.3168,0.14784 -0.46464,0.45408 l -3.2208,6.9379203 c -0.03168,0.07392 -0.0528,0.14784001 -0.0528,0.21120001 0,0.20064001 0.16896,0.35904001 0.35904,0.35904001 0.22176,0 0.32736,-0.1584 0.45408,-0.44352001 z"
     id="path1503"
     inkscape:connector-curvature="0"
     style="fill:#ffffff" /></g>
</g></g><g
       id="g288"
       style="fill:#ffffff"><g
         clip-path="url(#clipPath294)"
         id="g290"
         style="fill:#ffffff"><g
   aria-label="\"
   transform="matrix(1,0,0,-1,314.57,663.46)"
   style="font-variant:normal;font-weight:normal;font-size:10.56000042px;font-family:'Courier 10 Pitch';-inkscape-font-specification:CourierNewPSMT;writing-mode:lr-tb;fill:#ffffff;fill-opacity:1;fill-rule:nonzero;stroke:none"
   id="text298"><path
     d="m 4.6041602,0.34848001 c 0.06336,0.13728001 0.20064,0.23232001 0.33792,0.23232001 0.20064,0 0.35904,-0.1584 0.35904,-0.35904001 0,-0.06336 -0.02112,-0.13728001 -0.0528,-0.21120001 L 1.9219201,-7.1385603 c -0.0528,-0.12672 -0.22176,-0.23232 -0.3696,-0.23232 -0.19008,0 -0.3484801,0.14784 -0.3484801,0.33792 0,0.06336 0.01056,0.12672 0.04224,0.19008 z"
     id="path1506"
     inkscape:connector-curvature="0"
     style="fill:#ffffff" /></g>
</g></g><g
       id="g300"
       style="fill:#ffffff"><g
         clip-path="url(#clipPath306)"
         id="g302"
         style="fill:#ffffff"><g
   aria-label="____/|___"
   transform="matrix(1,0,0,-1,320.95,663.46)"
   style="font-variant:normal;font-weight:normal;font-size:10.56000042px;font-family:'Courier 10 Pitch';-inkscape-font-specification:CourierNewPSMT;writing-mode:lr-tb;fill:#ffffff;fill-opacity:1;fill-rule:nonzero;stroke:none"
   id="text310"><path
     d="M 6.3571203,2.3020801 H 0 c -0.13728001,0 -0.23232001,0.08448 -0.23232001,0.2112 v 0.39072 c 0,0.14784 0.09504,0.25344 0.23232001,0.25344 h 6.3571203 c 0.12672,0 0.24288,-0.11616 0.24288,-0.25344 v -0.39072 c 0,-0.13728 -0.08448,-0.2112 -0.24288,-0.2112 z"
     id="path1509"
     inkscape:connector-curvature="0"
     style="fill:#ffffff" /><path
     d="M 12.69312,2.3020801 H 6.336 c -0.13728,0 -0.23232,0.08448 -0.23232,0.2112 v 0.39072 c 0,0.14784 0.09504,0.25344 0.23232,0.25344 h 6.35712 c 0.12672,0 0.24288,-0.11616 0.24288,-0.25344 v -0.39072 c 0,-0.13728 -0.08448,-0.2112 -0.24288,-0.2112 z"
     id="path1511"
     inkscape:connector-curvature="0"
     style="fill:#ffffff" /><path
     d="m 18.9552,2.3020801 h -6.35712 c -0.13728,0 -0.23232,0.08448 -0.23232,0.2112 v 0.39072 c 0,0.14784 0.09504,0.25344 0.23232,0.25344 h 6.35712 c 0.12672,0 0.24288,-0.11616 0.24288,-0.25344 v -0.39072 c 0,-0.13728 -0.08448,-0.2112 -0.24288,-0.2112 z"
     id="path1513"
     inkscape:connector-curvature="0"
     style="fill:#ffffff" /><path
     d="m 25.2912,2.3020801 h -6.35712 c -0.13728,0 -0.23232,0.08448 -0.23232,0.2112 v 0.39072 c 0,0.14784 0.09504,0.25344 0.23232,0.25344 h 6.35712 c 0.12672,0 0.24288,-0.11616 0.24288,-0.25344 v -0.39072 c 0,-0.13728 -0.08448,-0.2112 -0.24288,-0.2112 z"
     id="path1515"
     inkscape:connector-curvature="0"
     style="fill:#ffffff" /><path
     d="M 27.213119,0.13728001 30.45504,-6.8428803 c 0.03168,-0.06336 0.0528,-0.12672 0.0528,-0.19008 0,-0.20064 -0.17952,-0.34848 -0.3696,-0.34848 -0.2112,0 -0.3168,0.14784 -0.46464,0.45408 L 26.452799,0.01056 c -0.03168,0.07392 -0.0528,0.14784001 -0.0528,0.21120001 0,0.20064001 0.16896,0.35904001 0.35904,0.35904001 0.22176,0 0.32736,-0.1584 0.45408,-0.44352001 z"
     id="path1517"
     inkscape:connector-curvature="0"
     style="fill:#ffffff" /><path
     d="M 35.14368,2.4921601 V -8.0678403 c -0.01056,-0.13728 -0.19008,-0.25344 -0.43296,-0.25344 -0.24288,0 -0.4224,0.11616 -0.43296,0.25344 V 2.4921601 c 0.01056,0.13728 0.19008,0.264 0.43296,0.264 0.24288,0 0.4224,-0.12672 0.43296,-0.264 z"
     id="path1519"
     inkscape:connector-curvature="0"
     style="fill:#ffffff" /><path
     d="m 44.151359,2.3020801 h -6.35712 c -0.13728,0 -0.23232,0.08448 -0.23232,0.2112 v 0.39072 c 0,0.14784 0.09504,0.25344 0.23232,0.25344 h 6.35712 c 0.12672,0 0.24288,-0.11616 0.24288,-0.25344 v -0.39072 c 0,-0.13728 -0.08448,-0.2112 -0.24288,-0.2112 z"
     id="path1521"
     inkscape:connector-curvature="0"
     style="fill:#ffffff" /><path
     d="m 50.487362,2.3020801 h -6.357121 c -0.13728,0 -0.23232,0.08448 -0.23232,0.2112 v 0.39072 c 0,0.14784 0.09504,0.25344 0.23232,0.25344 h 6.357121 c 0.12672,0 0.24288,-0.11616 0.24288,-0.25344 v -0.39072 c 0,-0.13728 -0.08448,-0.2112 -0.24288,-0.2112 z"
     id="path1523"
     inkscape:connector-curvature="0"
     style="fill:#ffffff" /><path
     d="m 56.749439,2.3020801 h -6.35712 c -0.13728,0 -0.23232,0.08448 -0.23232,0.2112 v 0.39072 c 0,0.14784 0.09504,0.25344 0.23232,0.25344 h 6.35712 c 0.12672,0 0.24288,-0.11616 0.24288,-0.25344 v -0.39072 c 0,-0.13728 -0.08448,-0.2112 -0.24288,-0.2112 z"
     id="path1525"
     inkscape:connector-curvature="0"
     style="fill:#ffffff" /></g>
</g></g><g
       id="g312"
       style="fill:#ffffff"><g
         clip-path="url(#clipPath318)"
         id="g314"
         style="fill:#ffffff"><g
   aria-label="/ "
   transform="matrix(1,0,0,-1,377.71,663.46)"
   style="font-variant:normal;font-weight:normal;font-size:10.56000042px;font-family:'Courier 10 Pitch';-inkscape-font-specification:CourierNewPSMT;writing-mode:lr-tb;fill:#ffffff;fill-opacity:1;fill-rule:nonzero;stroke:none"
   id="text322"><path
     d="M 2.0169601,0.13728001 5.2588802,-6.8428803 c 0.03168,-0.06336 0.0528,-0.12672 0.0528,-0.19008 0,-0.20064 -0.17952,-0.34848 -0.3696,-0.34848 -0.2112,0 -0.3168,0.14784 -0.46464,0.45408 L 1.25664,0.01056 c -0.03168,0.07392 -0.0528,0.14784001 -0.0528,0.21120001 0,0.20064001 0.1689601,0.35904001 0.3590401,0.35904001 0.22176,0 0.32736,-0.1584 0.45408,-0.44352001 z"
     id="path1528"
     inkscape:connector-curvature="0"
     style="fill:#ffffff" /></g>
</g></g><g
       id="g324"
       style="fill:#ffffff"><g
         clip-path="url(#clipPath330)"
         id="g326"
         style="fill:#ffffff" /></g><g
       id="g332"
       style="fill:#ffffff"><g
         clip-path="url(#clipPath338)"
         id="g334"
         style="fill:#ffffff" /></g><g
       id="g340"
       style="fill:#ffffff"><g
         clip-path="url(#clipPath346)"
         id="g342"
         style="fill:#ffffff"><g
   aria-label="/____/ "
   transform="matrix(1,0,0,-1,100.34,651.46)"
   style="font-variant:normal;font-weight:normal;font-size:10.56000042px;font-family:'Courier 10 Pitch';-inkscape-font-specification:CourierNewPSMT;writing-mode:lr-tb;fill:#ffffff;fill-opacity:1;fill-rule:nonzero;stroke:none"
   id="text350"><path
     d="M 2.0169601,0.13728001 5.2588802,-6.8428803 c 0.03168,-0.06336 0.0528,-0.12672 0.0528,-0.19008 0,-0.20064 -0.17952,-0.34848 -0.3696,-0.34848 -0.2112,0 -0.3168,0.14784 -0.46464,0.45408 L 1.25664,0.01056 c -0.03168,0.07392 -0.0528,0.14784001 -0.0528,0.21120001 0,0.20064001 0.1689601,0.35904001 0.3590401,0.35904001 0.22176,0 0.32736,-0.1584 0.45408,-0.44352001 z"
     id="path1531"
     inkscape:connector-curvature="0"
     style="fill:#ffffff" /><path
     d="M 12.59808,2.3020801 H 6.2409601 c -0.13728,0 -0.23232,0.08448 -0.23232,0.2112 v 0.39072 c 0,0.14784 0.09504,0.25344 0.23232,0.25344 H 12.59808 c 0.12672,0 0.24288,-0.11616 0.24288,-0.25344 v -0.39072 c 0,-0.13728 -0.08448,-0.2112 -0.24288,-0.2112 z"
     id="path1533"
     inkscape:connector-curvature="0"
     style="fill:#ffffff" /><path
     d="m 18.93408,2.3020801 h -6.35712 c -0.13728,0 -0.23232,0.08448 -0.23232,0.2112 v 0.39072 c 0,0.14784 0.09504,0.25344 0.23232,0.25344 h 6.35712 c 0.12672,0 0.24288,-0.11616 0.24288,-0.25344 v -0.39072 c 0,-0.13728 -0.08448,-0.2112 -0.24288,-0.2112 z"
     id="path1535"
     inkscape:connector-curvature="0"
     style="fill:#ffffff" /><path
     d="m 25.196161,2.3020801 h -6.35712 c -0.13728,0 -0.23232,0.08448 -0.23232,0.2112 v 0.39072 c 0,0.14784 0.09504,0.25344 0.23232,0.25344 h 6.35712 c 0.12672,0 0.24288,-0.11616 0.24288,-0.25344 v -0.39072 c 0,-0.13728 -0.08448,-0.2112 -0.24288,-0.2112 z"
     id="path1537"
     inkscape:connector-curvature="0"
     style="fill:#ffffff" /><path
     d="m 31.53216,2.3020801 h -6.357121 c -0.13728,0 -0.23232,0.08448 -0.23232,0.2112 v 0.39072 c 0,0.14784 0.09504,0.25344 0.23232,0.25344 h 6.357121 c 0.12672,0 0.24288,-0.11616 0.24288,-0.25344 v -0.39072 c 0,-0.13728 -0.08448,-0.2112 -0.24288,-0.2112 z"
     id="path1539"
     inkscape:connector-curvature="0"
     style="fill:#ffffff" /><path
     d="m 33.454081,0.13728001 3.24192,-6.98016031 c 0.03168,-0.06336 0.0528,-0.12672 0.0528,-0.19008 0,-0.20064 -0.17952,-0.34848 -0.3696,-0.34848 -0.2112,0 -0.3168,0.14784 -0.46464,0.45408 L 32.69376,0.01056 c -0.03168,0.07392 -0.0528,0.14784001 -0.0528,0.21120001 0,0.20064001 0.16896,0.35904001 0.35904,0.35904001 0.221761,0 0.327361,-0.1584 0.454081,-0.44352001 z"
     id="path1541"
     inkscape:connector-curvature="0"
     style="fill:#ffffff" /></g>
</g></g><g
       id="g352"
       style="fill:#ffffff"><g
         clip-path="url(#clipPath358)"
         id="g354"
         style="fill:#ffffff" /></g><g
       id="g360"
       style="fill:#ffffff"><g
         clip-path="url(#clipPath366)"
         id="g362"
         style="fill:#ffffff" /></g><g
       id="g368"
       style="fill:#ffffff"><g
         clip-path="url(#clipPath374)"
         id="g370"
         style="fill:#ffffff" /></g><g
       id="g376"
       style="fill:#ffffff"><g
         clip-path="url(#clipPath382)"
         id="g378"
         style="fill:#ffffff" /></g></g></svg>