<?xml version="1.0" encoding="iso-8859-1"?>
<!-- Generator: Adobe Illustrator 19.0.0, SVG Export Plug-In . SVG Version: 6.00 Build 0)  -->
<svg version="1.1" id="Capa_1" xmlns="http://www.w3.org/2000/svg" xmlns:xlink="http://www.w3.org/1999/xlink" x="0px" y="0px"
	 viewBox="0 0 511.895 511.895" style="enable-background:new 0 0 511.895 511.895;" xml:space="preserve">
  <defs>
    <style type="text/css"><![CDATA[
    	g {
        	fill:white;
       	}
    ]]></style>
  </defs>
<g>
	<g>
		<g>
			<path stroke-width="1" d="M468.438,148.27c-0.001-0.175-0.056-0.338-0.069-0.511c-0.016-0.207-0.047-0.402-0.082-0.609
				c-0.117-0.768-0.367-1.51-0.738-2.193l-0.012-0.036l-0.007-0.007c-0.41-0.675-0.937-1.273-1.555-1.765
				c-0.162-0.135-0.32-0.258-0.493-0.376c-0.148-0.102-0.268-0.236-0.426-0.326L218.234,0.79c-0.253-0.103-0.512-0.189-0.776-0.259
				c-0.427-0.196-0.875-0.345-1.334-0.445c-0.838-0.117-1.689-0.115-2.526,0.005c-0.457,0.102-0.902,0.252-1.327,0.448
				c-0.258,0.069-0.512,0.155-0.76,0.257L46.187,96.257l-0.028,0.024c-0.671,0.407-1.264,0.93-1.752,1.544
				c-0.13,0.157-0.248,0.309-0.362,0.476c-0.44,0.612-0.773,1.294-0.985,2.017l-0.016,0.046c-0.151,0.57-0.227,1.158-0.226,1.748
				l0.197,76.336l0.204,76.336l0.197,76.335c0.008,2.405,1.296,4.624,3.382,5.822l10.86,6.233l0.055,36.688
				c0.004,2.409,1.293,4.634,3.382,5.835l28.48,16.342c2.087,1.198,4.654,1.192,6.737-0.013l0.081-0.063l31.753-18.338
				l119.375,68.508l0.054,36.689c0.004,2.41,1.293,4.634,3.382,5.836L279.431,511l0.021,0.009c1.047,0.498,2.177,0.798,3.333,0.886
				l0.003,0l0.003,0c0.583,0,1.162-0.077,1.725-0.227c0.214-0.057,0.41-0.177,0.618-0.255c0.35-0.111,0.691-0.252,1.018-0.42
				l0.007-0.004l0.007-0.003l0.005-0.004l27.541-15.897c0.227-0.175,0.443-0.365,0.645-0.569c0.742-0.503,1.344-1.187,1.747-1.988
				c0.209-0.343,0.385-0.704,0.526-1.079c0.151-0.469,0.249-0.953,0.291-1.444c0.067-0.248,0.118-0.501,0.153-0.755v-20.332
				l82.457-47.596l17.661,10.125c0.172,0.099,0.359,0.139,0.536,0.221c0.16,0.075,0.317,0.137,0.484,0.199
				c0.74,0.295,1.526,0.456,2.322,0.475l0.02-0.003l0.013,0.003l0.005-0.001l0.008,0.001c0.793-0.018,1.577-0.177,2.315-0.47
				c0.184-0.069,0.357-0.136,0.534-0.22c0.168-0.08,0.348-0.116,0.513-0.212l27.559-15.908c0.227-0.175,0.443-0.365,0.645-0.569
				c0.742-0.503,1.344-1.187,1.747-1.988c0.209-0.343,0.385-0.704,0.526-1.079c0.151-0.469,0.249-0.953,0.291-1.444
				c0.067-0.248,0.118-0.501,0.153-0.755v-20.314l10.842-6.259c0.226-0.174,0.44-0.362,0.64-0.565
				c1.461-1.419,2.419-3.277,2.728-5.29L468.438,148.27z M455.378,297.074l-151.9,87.689l-0.163-60.799l151.895-87.682
				L455.378,297.074z M455.167,220.747l-151.891,87.681l-0.157-60.799l151.88-87.69L455.167,220.747z M214.889,14.406l233.307,133.9
				L296.36,235.97L63.06,102.075L214.889,14.406z M56.326,113.744l233.322,133.908l0.155,60.776L56.48,174.521L56.326,113.744z
				 M56.522,190.08l233.32,133.907l0.163,60.776L56.683,250.856L56.522,190.08z M71.181,375.948l-0.033-25.033l14.993,8.605
				l0.033,25.033L71.181,375.948z M99.651,384.521l-0.025-17.264l15.006,8.611L99.651,384.521z M261.043,484.915l-0.033-25.039
				l3.215,1.844l11.778,6.759l0.033,25.035L261.043,484.915z M286.099,458.739l-0.011-0.008l-24.632-14.134L96.242,349.781
				l-0.015-0.012l-28.48-16.342l-0.003-0.001l-10.865-6.236l-0.155-60.776l233.322,133.907l0.155,60.771L286.099,458.739z
				 M289.507,493.498l-0.022-17.283l4.13,2.37l0.021,0.009c1.047,0.498,2.178,0.798,3.334,0.886l0.003,0l0.003,0
				c0.583,0,1.164-0.077,1.727-0.227c0.059-0.016,0.114-0.053,0.173-0.071c0.509-0.143,1-0.345,1.462-0.603l3.263-1.884l0,8.667
				L289.507,493.498z M413.832,413.996l-0.807-0.463l0.807-0.466V413.996z M441.391,405.81l-14.086,8.13v-8.649l14.086-8.131V405.81
				z M303.677,461.092L303.52,400.3l151.902-87.691l0.168,60.796L303.677,461.092z"/>
			<path d="M109.003,322.875c-0.633-12.378-7.214-23.685-17.664-30.349c-5.013-3.349-11.447-3.717-16.809-0.961
				c-5.033,3.273-7.896,9.017-7.48,15.007c0.633,12.378,7.214,23.685,17.664,30.349c2.944,1.773,6.301,2.744,9.737,2.816
				c2.481,0.023,4.922-0.618,7.072-1.855c5.032-3.271,7.895-9.013,7.48-15V322.875z M94.76,326.23
				c-0.158,0.059-1.25,0.204-3.336-0.993c-6.314-4.226-10.334-11.121-10.901-18.697c-0.007-2.348,0.644-3.243,0.77-3.322
				c0.108-0.037,0.222-0.052,0.336-0.046c1.071,0.09,2.103,0.448,3,1.039c6.315,4.225,10.335,11.12,10.901,18.697
				C95.537,325.257,94.885,326.151,94.76,326.23z"/>
			<path d="M273.095,401.23h-0.02c-3.721,0.011-6.728,3.036-6.717,6.757l0.086,25.98c0.011,3.713,3.024,6.717,6.737,6.717h0.02
				c3.721-0.011,6.728-3.036,6.717-6.757l-0.086-25.98C279.821,404.235,276.808,401.231,273.095,401.23z"/>
			<path d="M254.109,390.336h-0.02c-3.721,0.011-6.728,3.036-6.717,6.757l0.086,25.98c0.011,3.713,3.024,6.717,6.737,6.717h0.02
				c3.721-0.011,6.728-3.036,6.717-6.757l-0.086-25.98C260.834,393.34,257.821,390.336,254.109,390.336z"/>
			<path d="M235.122,379.441h-0.02c-3.721,0.011-6.728,3.036-6.717,6.757l0.086,25.98c0.011,3.713,3.024,6.717,6.737,6.717h0.02
				c3.721-0.011,6.728-3.036,6.717-6.757l-0.086-25.98C241.847,382.445,238.835,379.441,235.122,379.441z"/>
			<path d="M216.115,368.546c-3.721,0.011-6.728,3.036-6.717,6.757l0.086,25.98c0.011,3.713,3.024,6.717,6.737,6.717h0.02
				c3.721-0.011,6.728-3.036,6.717-6.757l-0.086-25.98C222.815,371.562,219.817,368.582,216.115,368.546z"/>
			<path d="M197.155,357.651h-0.02c-3.721,0.011-6.728,3.036-6.717,6.757l0.086,25.974c0.011,3.713,3.024,6.717,6.737,6.717h0.02
				c3.721-0.011,6.728-3.036,6.717-6.757l-0.086-25.974C203.88,360.656,200.867,357.651,197.155,357.651z"/>
			<path d="M178.168,346.75h-0.02c-3.721,0.011-6.728,3.036-6.717,6.757l0.086,25.98c0.011,3.713,3.024,6.717,6.737,6.717h0.02
				c3.721-0.011,6.728-3.036,6.717-6.757l-0.086-25.98C184.894,349.754,181.881,346.75,178.168,346.75z"/>
			<path d="M108.806,246.54c-0.632-12.38-7.217-23.688-17.671-30.349c-5.013-3.355-11.453-3.723-16.816-0.961
				c-5.027,3.274-7.885,9.015-7.467,15c0.622,12.383,7.206,23.696,17.664,30.355c2.944,1.773,6.301,2.744,9.737,2.816
				c2.481,0.023,4.922-0.618,7.072-1.855c5.032-3.271,7.895-9.013,7.48-15V246.54z M94.563,249.895
				c-0.145,0.072-1.276,0.191-3.342-0.993c-6.317-4.225-10.336-11.125-10.895-18.704c-0.007-2.336,0.638-3.237,0.763-3.316
				c0.108-0.037,0.222-0.052,0.336-0.046c1.073,0.09,2.107,0.447,3.007,1.039c6.315,4.228,10.335,11.125,10.901,18.704
				C95.339,248.921,94.688,249.816,94.563,249.895z"/>
			<path d="M272.898,324.901h-0.02c-3.721,0.011-6.728,3.036-6.717,6.757l0.085,25.974c0.011,3.713,3.024,6.717,6.737,6.717h0.02
				c3.721-0.011,6.728-3.036,6.717-6.757l-0.086-25.974C279.624,327.906,276.611,324.902,272.898,324.901z"/>
			<path d="M253.911,314h-0.02c-1.787,0.005-3.498,0.72-4.758,1.987c-1.26,1.267-1.964,2.983-1.959,4.769l0.086,25.98
				c0.011,3.713,3.024,6.717,6.737,6.717h0.02c3.721-0.011,6.728-3.036,6.717-6.757l-0.086-25.98
				C260.637,317.004,257.624,314,253.911,314z"/>
			<path d="M234.924,303.105h-0.02c-1.787,0.005-3.498,0.72-4.758,1.987s-1.964,2.983-1.959,4.769l0.085,25.98
				c0.011,3.713,3.024,6.717,6.737,6.717h0.02c3.721-0.011,6.728-3.036,6.717-6.757l-0.086-25.98
				C241.65,306.11,238.637,303.106,234.924,303.105z"/>
			<path d="M215.938,292.211h-0.02c-3.721,0.011-6.728,3.036-6.717,6.757l0.086,25.98c0.011,3.713,3.024,6.717,6.737,6.717h0.02
				c1.787-0.005,3.498-0.72,4.758-1.987c1.26-1.267,1.964-2.983,1.959-4.769l-0.086-25.98
				C222.663,295.215,219.65,292.211,215.938,292.211z"/>
			<path d="M196.951,281.316h-0.02c-1.787,0.005-3.498,0.72-4.758,1.987s-1.964,2.983-1.959,4.769l0.086,25.974
				c0.011,3.713,3.024,6.717,6.737,6.717h0.02c3.721-0.011,6.728-3.036,6.717-6.757l-0.086-25.974
				C203.676,284.32,200.664,281.316,196.951,281.316z"/>
			<path d="M177.964,270.421h-0.02c-1.787,0.005-3.498,0.72-4.758,1.987c-1.26,1.267-1.964,2.983-1.959,4.769l0.086,25.974
				c0.011,3.713,3.024,6.717,6.737,6.717h0.02c1.787-0.005,3.498-0.72,4.758-1.987s1.964-2.983,1.959-4.769l-0.086-25.974
				C184.69,273.425,181.677,270.421,177.964,270.421z"/>
			<path d="M90.938,139.855c-5.011-3.356-11.449-3.723-16.809-0.961c-5.033,3.273-7.896,9.017-7.48,15.007
				c0.632,12.38,7.217,23.688,17.671,30.349c2.942,1.773,6.296,2.744,9.73,2.816c2.485,0.024,4.931-0.617,7.086-1.855
				c5.028-3.276,7.886-9.02,7.467-15.007C107.976,157.824,101.393,146.514,90.938,139.855z M95.128,170.244
				c0.007,2.336-0.638,3.237-0.763,3.316c-0.158,0.066-1.257,0.197-3.342-0.993c-6.314-4.226-10.333-11.121-10.901-18.697
				c-0.007-2.349,0.645-3.243,0.77-3.322c0.106-0.036,0.217-0.052,0.329-0.046c1.075,0.09,2.111,0.447,3.013,1.039
				c6.315,4.224,10.334,11.12,10.895,18.697V170.244z"/>
			<path d="M272.694,248.566h-0.02c-3.721,0.011-6.728,3.036-6.717,6.757l0.086,25.974c0.011,3.713,3.024,6.717,6.737,6.717h0.02
				c3.721-0.011,6.728-3.036,6.717-6.757l-0.086-25.974C279.42,251.57,276.407,248.566,272.694,248.566z"/>
			<path d="M253.707,237.665h-0.02c-3.721,0.011-6.728,3.036-6.717,6.757l0.086,25.98c0.011,3.713,3.024,6.717,6.737,6.717h0.02
				c3.721-0.011,6.728-3.036,6.717-6.757l-0.086-25.98C260.433,240.669,257.42,237.665,253.707,237.665z"/>
			<path d="M234.727,226.77h-0.02c-3.721,0.011-6.728,3.036-6.717,6.757l0.086,25.98c0.011,3.713,3.024,6.717,6.737,6.717h0.02
				c1.787-0.005,3.498-0.72,4.758-1.987s1.964-2.983,1.959-4.769l-0.085-25.98C241.453,229.774,238.44,226.77,234.727,226.77z"/>
			<path d="M215.74,215.875h-0.02c-3.721,0.011-6.728,3.036-6.717,6.757l0.086,25.98c0.011,3.713,3.024,6.717,6.737,6.717h0.02
				c3.721-0.011,6.728-3.036,6.717-6.757l-0.086-25.98C222.466,218.879,219.453,215.875,215.74,215.875z"/>
			<path d="M196.753,204.98h-0.02c-3.721,0.011-6.728,3.036-6.717,6.757l0.086,25.98c0.011,3.713,3.024,6.717,6.737,6.717h0.02
				c3.721-0.011,6.728-3.036,6.717-6.757l-0.086-25.98C203.479,207.985,200.466,204.981,196.753,204.98z"/>
			<path d="M177.766,194.086h-0.02c-3.721,0.011-6.728,3.036-6.717,6.757l0.086,25.974c0.011,3.713,3.024,6.717,6.737,6.717h0.02
				c3.721-0.011,6.728-3.036,6.717-6.757l-0.086-25.974C184.492,197.09,181.479,194.086,177.766,194.086z"/>
		</g>
	</g>
</g>
<g>
</g>
<g>
</g>
<g>
</g>
<g>
</g>
<g>
</g>
<g>
</g>
<g>
</g>
<g>
</g>
<g>
</g>
<g>
</g>
<g>
</g>
<g>
</g>
<g>
</g>
<g>
</g>
<g>
</g>
</svg>
